<svg width="12" height="12" viewBox="0 0 12 12" fill="none" xmlns="http://www.w3.org/2000/svg">
<path id="Vector" d="M0.113845 0.235193L0.170067 0.170067C0.376212 -0.0360773 0.698788 -0.0548127 0.926099 0.113845L0.991224 0.170067L6 5.17858L11.0088 0.170067C11.2356 -0.0566863 11.6032 -0.0566863 11.8299 0.170067C12.0567 0.396821 12.0567 0.764471 11.8299 0.991224L6.82142 6L11.8299 11.0088C12.0361 11.2149 12.0548 11.5375 11.8861 11.7648L11.8299 11.8299C11.6238 12.0361 11.3012 12.0548 11.0739 11.8861L11.0088 11.8299L6 6.82142L0.991224 11.8299C0.764471 12.0567 0.396821 12.0567 0.170067 11.8299C-0.0566863 11.6032 -0.0566863 11.2356 0.170067 11.0088L5.17858 6L0.170067 0.991224C-0.0360773 0.78508 -0.0548127 0.462504 0.113845 0.235193L0.170067 0.170067L0.113845 0.235193Z" fill="#212121"/>
</svg>
