<svg width="64" height="64" viewBox="0 0 64 64" fill="none" xmlns="http://www.w3.org/2000/svg">
<g id="Certificate / undefined / Glyph: undefined">
<rect width="64" height="64" rx="20" fill="#9BDA67"/>
<path id="Vector" d="M13.0019 19.2105C13.0019 16.3328 15.3411 14 18.2266 14H45.7753C48.6608 14 51 16.3328 51 19.2105V37.2105C51 40.0883 48.6608 42.4211 45.7753 42.4211H28.2011V40.5273C28.4291 40.2247 28.6392 39.9081 28.8302 39.5789H45.7753C47.087 39.5789 48.1501 38.5187 48.1501 37.2105V19.2105C48.1501 17.9025 47.087 16.8421 45.7753 16.8421H18.2266C16.915 16.8421 15.8517 17.9025 15.8517 19.2105V26.6358C14.7396 27.2774 13.77 28.1374 13.0019 29.1569V19.2105ZM22.0264 21.5789C21.2395 21.5789 20.6015 22.2152 20.6015 23C20.6015 23.7848 21.2395 24.4211 22.0264 24.4211H41.9754C42.7624 24.4211 43.4004 23.7848 43.4004 23C43.4004 22.2152 42.7624 21.5789 41.9754 21.5789H22.0264ZM33.4259 31.0526C32.6389 31.0526 32.0009 31.6889 32.0009 32.4737C32.0009 33.2585 32.6389 33.8947 33.4259 33.8947H41.9754C42.7624 33.8947 43.4004 33.2585 43.4004 32.4737C43.4004 31.6889 42.7624 31.0526 41.9754 31.0526H33.4259ZM20.6009 27.2632C16.403 27.2632 13 30.6568 13 34.8432C13 39.0297 16.403 42.4235 20.6009 42.4235C24.7987 42.4235 28.2017 39.0297 28.2017 34.8432C28.2017 30.6568 24.7987 27.2632 20.6009 27.2632ZM26.3027 42.4229C24.7145 43.613 22.7403 44.3183 20.6009 44.3183C18.4631 44.3183 16.4903 43.6142 14.9029 42.4258L14.902 48.5765C14.902 49.658 16.0505 50.3185 16.973 49.8439L17.143 49.7414L20.6015 47.3307L24.0587 49.7414C24.9477 50.3608 26.1484 49.8003 26.2866 48.7741L26.2997 48.5765L26.3027 42.4229Z" fill="#285F40"/>
</g>
</svg>
