<svg width="32" height="32" viewBox="0 0 32 32" fill="none" xmlns="http://www.w3.org/2000/svg">
<path d="M14.066 3.37589C15.1832 2.43378 16.8168 2.43378 17.934 3.3759L26.934 10.9654C27.6099 11.5354 28 12.3746 28 13.2588V25.6719C28 26.9606 26.9553 28.0052 25.6667 28.0052H21C19.7113 28.0052 18.6667 26.9606 18.6667 25.6719V18.9958C18.6667 18.8118 18.5175 18.6624 18.3333 18.6624H13.6667C13.4825 18.6624 13.3333 18.8118 13.3333 18.9958V25.6719C13.3333 26.9606 12.2887 28.0052 11 28.0052H6.33333C5.04467 28.0052 4 26.9606 4 25.6719V13.2588C4 12.3746 4.39007 11.5354 5.06603 10.9654L14.066 3.37589ZM16.6447 4.90484C16.2723 4.5908 15.7277 4.5908 15.3553 4.90484L6.35535 12.4943C6.13003 12.6843 6 12.9641 6 13.2588V25.6719C6 25.856 6.14924 26.0052 6.33333 26.0052H11C11.1841 26.0052 11.3333 25.856 11.3333 25.6719V18.9958C11.3333 17.7071 12.378 16.6624 13.6667 16.6624H18.3333C19.622 16.6624 20.6667 17.7071 20.6667 18.9958V25.6719C20.6667 25.856 20.8159 26.0052 21 26.0052H25.6667C25.8508 26.0052 26 25.856 26 25.6719V13.2588C26 12.9641 25.87 12.6843 25.6447 12.4943L16.6447 4.90484Z" fill="white"/>
</svg>
