<svg width="24" height="24" viewBox="0 0 24 24" fill="none" xmlns="http://www.w3.org/2000/svg">
<g id="CheckboxBlank/Regular">
<path id="Vector" d="M18 20.7507H6C4.485 20.7507 3.25 19.5159 3.25 18.0012V6.00373C3.25 4.48904 4.485 3.2543 6 3.2543H18C19.515 3.2543 20.75 4.48904 20.75 6.00373V18.0012C20.75 19.5159 19.515 20.7507 18 20.7507ZM6 4.75399C5.31 4.75399 4.75 5.31387 4.75 6.00373V18.0012C4.75 18.6911 5.31 19.251 6 19.251H18C18.69 19.251 19.25 18.6911 19.25 18.0012V6.00373C19.25 5.31387 18.69 4.75399 18 4.75399H6Z" fill="#05212E"/>
</g>
</svg>
