<svg width="64" height="64" viewBox="0 0 64 64" fill="none" xmlns="http://www.w3.org/2000/svg">
<g id="Document Bullet List Multiple / undefined / Glyph: undefined">
<rect width="64" height="64" rx="20" fill="#9BDA67"/>
<path id="Vector" d="M24.0309 31.525C23.2543 31.525 22.6247 32.1798 22.6247 32.9875C22.6247 33.7952 23.2543 34.45 24.0309 34.45C24.8075 34.45 25.437 33.7952 25.437 32.9875C25.437 32.1798 24.8075 31.525 24.0309 31.525ZM22.6247 38.8375C22.6247 38.0298 23.2543 37.375 24.0309 37.375C24.8075 37.375 25.437 38.0298 25.437 38.8375C25.437 39.6452 24.8075 40.3 24.0309 40.3C23.2543 40.3 22.6247 39.6452 22.6247 38.8375ZM28.2494 32.9875C28.2494 32.1798 28.879 31.525 29.6555 31.525H35.3811C36.1577 31.525 36.7873 32.1798 36.7873 32.9875C36.7873 33.7952 36.1577 34.45 35.3811 34.45H29.6555C28.879 34.45 28.2494 33.7952 28.2494 32.9875ZM29.6555 37.375C28.879 37.375 28.2494 38.0298 28.2494 38.8375C28.2494 39.6452 28.879 40.3 29.6555 40.3H35.3811C36.1577 40.3 36.7873 39.6452 36.7873 38.8375C36.7873 38.0298 36.1577 37.375 35.3811 37.375H29.6555ZM21.2185 13C18.8887 13 17 14.9644 17 17.3875V42.7375C17 45.1606 18.8887 47.125 21.2185 47.125H38.0926C40.4223 47.125 42.3111 45.1606 42.3111 42.7375V26.3943C42.3111 25.2306 41.8665 24.1146 41.0755 23.2918L32.4156 14.2851C31.6246 13.4622 30.5515 13 29.4328 13H21.2185ZM19.8123 17.3875C19.8123 16.5798 20.4419 15.925 21.2185 15.925H29.1941V22.2577C29.1941 24.6808 31.0829 26.6452 33.4126 26.6452H39.4987V42.7375C39.4987 43.5452 38.8691 44.2 38.0926 44.2H21.2185C20.4419 44.2 19.8123 43.5452 19.8123 42.7375V17.3875ZM32.0065 22.2577V17.9961L37.51 23.7202H33.4126C32.6361 23.7202 32.0065 23.0654 32.0065 22.2577ZM25.9074 52C24.0706 52 22.508 50.7791 21.9289 49.075H38.0943C41.4595 49.075 44.1877 46.2376 44.1877 42.7375V26.5269L45.7644 28.1669C46.5555 28.9896 47 30.1056 47 31.2694V42.7375C47 47.8531 43.0127 52 38.0943 52H25.9074Z" fill="#285F40"/>
</g>
</svg>
