<svg width="64" height="64" viewBox="0 0 64 64" fill="none" xmlns="http://www.w3.org/2000/svg">
<g id="Building / undefined / Glyph: undefined">
<rect width="64" height="64" rx="20" fill="#9BDA67"/>
<path id="Vector" d="M21.9375 17.625C21.2126 17.625 20.625 18.2126 20.625 18.9375V47.375H24.125V42.5625C24.125 41.3543 25.1044 40.375 26.3125 40.375H37.6875C38.8957 40.375 39.875 41.3543 39.875 42.5625V47.375H43.375V32.0625C43.375 31.3377 42.7873 30.75 42.0625 30.75H38.5625C37.8377 30.75 37.25 30.1623 37.25 29.4375V18.9375C37.25 18.2126 36.6623 17.625 35.9375 17.625H21.9375ZM26.75 43V47.375H30.6875V43H26.75ZM33.3125 43V47.375H37.25V43H33.3125ZM44.6875 50H19.3125C18.5876 50 18 49.4123 18 48.6875V18.9375C18 16.7629 19.7629 15 21.9375 15H35.9375C38.112 15 39.875 16.7629 39.875 18.9375V28.125H42.0625C44.237 28.125 46 29.8879 46 32.0625V48.6875C46 49.4123 45.4123 50 44.6875 50ZM24.125 22.875C24.125 21.9085 24.9085 21.125 25.875 21.125C26.8415 21.125 27.625 21.9085 27.625 22.875C27.625 23.8415 26.8415 24.625 25.875 24.625C24.9085 24.625 24.125 23.8415 24.125 22.875ZM25.875 33.375C24.9085 33.375 24.125 34.1585 24.125 35.125C24.125 36.0915 24.9085 36.875 25.875 36.875C26.8415 36.875 27.625 36.0915 27.625 35.125C27.625 34.1585 26.8415 33.375 25.875 33.375ZM25.875 27.25C24.9085 27.25 24.125 28.0335 24.125 29C24.125 29.9665 24.9085 30.75 25.875 30.75C26.8415 30.75 27.625 29.9665 27.625 29C27.625 28.0335 26.8415 27.25 25.875 27.25ZM32 21.125C31.0335 21.125 30.25 21.9085 30.25 22.875C30.25 23.8415 31.0335 24.625 32 24.625C32.9665 24.625 33.75 23.8415 33.75 22.875C33.75 21.9085 32.9665 21.125 32 21.125ZM32 33.375C31.0335 33.375 30.25 34.1585 30.25 35.125C30.25 36.0915 31.0335 36.875 32 36.875C32.9665 36.875 33.75 36.0915 33.75 35.125C33.75 34.1585 32.9665 33.375 32 33.375ZM38.125 33.375C37.1585 33.375 36.375 34.1585 36.375 35.125C36.375 36.0915 37.1585 36.875 38.125 36.875C39.0915 36.875 39.875 36.0915 39.875 35.125C39.875 34.1585 39.0915 33.375 38.125 33.375ZM32 27.25C31.0335 27.25 30.25 28.0335 30.25 29C30.25 29.9665 31.0335 30.75 32 30.75C32.9665 30.75 33.75 29.9665 33.75 29C33.75 28.0335 32.9665 27.25 32 27.25Z" fill="#285F40"/>
</g>
</svg>
