<svg width="32" height="32" viewBox="0 0 32 32" fill="none" xmlns="http://www.w3.org/2000/svg">
<path d="M13.3334 3.66663C18.6722 3.66663 23.0001 7.99455 23.0001 13.3333C23.0001 15.6425 22.1903 17.7625 20.8394 19.425L27.3738 25.9596C27.7643 26.3501 27.7643 26.9832 27.3738 27.3737C27.0189 27.7288 26.4633 27.761 26.0718 27.4705L25.9597 27.3737L19.4251 20.8393C17.7626 22.1902 15.6426 23 13.3334 23C7.99467 23 3.66675 18.6721 3.66675 13.3333C3.66675 7.99455 7.99467 3.66663 13.3334 3.66663ZM13.3334 5.66663C9.09923 5.66663 5.66675 9.09911 5.66675 13.3333C5.66675 17.5674 9.09923 21 13.3334 21C17.5675 21 21.0001 17.5674 21.0001 13.3333C21.0001 9.09911 17.5675 5.66663 13.3334 5.66663Z" fill="#555555"/>
</svg>
