<svg width="64" height="64" viewBox="0 0 64 64" fill="none" xmlns="http://www.w3.org/2000/svg">
<g id="Frame">
<rect width="64" height="64" rx="20" fill="#0C5D52"/>
<path id="Vector" d="M28.5833 20.5C25.5458 20.5 23.0833 22.9624 23.0833 26C23.0833 29.0376 25.5458 31.5 28.5833 31.5C31.621 31.5 34.0833 29.0376 34.0833 26C34.0833 22.9624 31.621 20.5 28.5833 20.5ZM25.8333 26C25.8333 24.4812 27.0645 23.25 28.5833 23.25C30.1021 23.25 31.3333 24.4812 31.3333 26C31.3333 27.5187 30.1021 28.75 28.5833 28.75C27.0645 28.75 25.8333 27.5187 25.8333 26ZM13 19.125C13 16.8468 14.8468 15 17.125 15H40.0417C42.3198 15 44.1667 16.8468 44.1667 19.125V27.8333H41.4167V23.25H40.0417C37.7636 23.25 35.9167 21.4032 35.9167 19.125V17.75H21.25V19.125C21.25 21.4032 19.4032 23.25 17.125 23.25H15.75V28.75H17.125C19.4032 28.75 21.25 30.5969 21.25 32.875V34.25H35V37H17.125C14.8468 37 13 35.1531 13 32.875V19.125ZM17.125 17.75C16.3656 17.75 15.75 18.3656 15.75 19.125V20.5H17.125C17.8844 20.5 18.5 19.8844 18.5 19.125V17.75H17.125ZM41.4167 20.5V19.125C41.4167 18.3656 40.801 17.75 40.0417 17.75H38.6667V19.125C38.6667 19.8844 39.2823 20.5 40.0417 20.5H41.4167ZM15.75 32.875C15.75 33.6344 16.3656 34.25 17.125 34.25H18.5V32.875C18.5 32.1156 17.8844 31.5 17.125 31.5H15.75V32.875ZM17.4025 39.75H35V42.5H22.1667C20.1309 42.5 18.3535 41.3939 17.4025 39.75ZM49.6667 27.8333V24.1667C49.6667 22.1309 48.5606 20.3535 46.9167 19.4025V27.8333H49.6667ZM39.5833 29.6667C38.0646 29.6667 36.8333 30.8979 36.8333 32.4167V47.0833C36.8333 48.6021 38.0646 49.8333 39.5833 49.8333H48.7496C50.2684 49.8333 51.4996 48.6021 51.4996 47.0833V32.4167C51.4996 30.8979 50.2684 29.6667 48.7496 29.6667H39.5833ZM40.5 37.9167H42.333C42.8391 37.9167 43.2496 38.3271 43.2496 38.8333C43.2496 39.3395 42.8391 39.75 42.333 39.75H40.5C39.9938 39.75 39.5833 39.3395 39.5833 38.8333C39.5833 38.3271 39.9938 37.9167 40.5 37.9167ZM46 37.9167H47.8333C48.3395 37.9167 48.75 38.3271 48.75 38.8333C48.75 39.3395 48.3395 39.75 47.8333 39.75H46C45.4938 39.75 45.0833 39.3395 45.0833 38.8333C45.0833 38.3271 45.4938 37.9167 46 37.9167ZM40.5 41.5833H42.333C42.8391 41.5833 43.2496 41.9938 43.2496 42.5C43.2496 43.0062 42.8391 43.4167 42.333 43.4167H40.5C39.9938 43.4167 39.5833 43.0062 39.5833 42.5C39.5833 41.9938 39.9938 41.5833 40.5 41.5833ZM46 41.5833H47.8333C48.3395 41.5833 48.75 41.9938 48.75 42.5C48.75 43.0062 48.3395 43.4167 47.8333 43.4167H46C45.4938 43.4167 45.0833 43.0062 45.0833 42.5C45.0833 41.9938 45.4938 41.5833 46 41.5833ZM40.5 45.25H42.333C42.8391 45.25 43.2496 45.6605 43.2496 46.1667C43.2496 46.6728 42.8391 47.0833 42.333 47.0833H40.5C39.9938 47.0833 39.5833 46.6728 39.5833 46.1667C39.5833 45.6605 39.9938 45.25 40.5 45.25ZM46 45.25H47.8333C48.3395 45.25 48.75 45.6605 48.75 46.1667C48.75 46.6728 48.3395 47.0833 47.8333 47.0833H46C45.4938 47.0833 45.0833 46.6728 45.0833 46.1667C45.0833 45.6605 45.4938 45.25 46 45.25ZM39.5831 33.3331C39.5831 32.827 39.9936 32.4165 40.4998 32.4165H47.8331C48.3393 32.4165 48.7498 32.827 48.7498 33.3331V35.1665C48.7498 35.6727 48.3393 36.0831 47.8331 36.0831H40.4998C39.9936 36.0831 39.5831 35.6727 39.5831 35.1665V33.3331Z" fill="#6AEBA1"/>
</g>
</svg>
