<svg width="24" height="24" viewBox="0 0 24 24" fill="none" xmlns="http://www.w3.org/2000/svg">
<g id="Checkbox/Filled">
<path id="Vector" d="M17.647 3.76471H6.35288C4.9223 3.76471 3.76465 4.92236 3.76465 6.35295V17.6471C3.76465 19.0729 4.9223 20.2353 6.35288 20.2353H17.647C19.0729 20.2353 20.2352 19.0729 20.2352 17.6471V6.35295C20.2352 4.92236 19.0729 3.76471 17.647 3.76471ZM16.2635 9.98589L11.2423 15.0071C11.1058 15.1435 10.9223 15.2141 10.7435 15.2141C10.5646 15.2141 10.3811 15.1435 10.2447 15.0071L7.73641 12.4988C7.45877 12.2212 7.45877 11.7741 7.73641 11.5012C8.00936 11.2235 8.45642 11.2235 8.73406 11.5012L10.7435 13.5106L15.2658 8.98823C15.5388 8.71529 15.9858 8.71529 16.2635 8.98823C16.5364 9.26588 16.5364 9.71295 16.2635 9.98589Z" fill="#05212E"/>
</g>
</svg>
