<svg width="378" height="49" viewBox="0 0 378 49" fill="none" xmlns="http://www.w3.org/2000/svg">
<g clip-path="url(#clip0_51_2323)">
<path d="M12.252 25.0068C13.8764 12.8339 41.1101 2.79106 77.6092 2.13492C90.7664 1.89498 102.852 2.96244 112.851 4.98962C101.58 1.62567 86.2504 -0.274198 69.0966 0.0342862C32.5975 0.68553 1.69575 11.0859 0.0665841 23.2685C-0.97189 31.059 10.2179 37.684 27.9673 41.2879C15.2578 37.4882 11.3898 31.4654 12.252 25.0117V25.0068Z" fill="white"/>
<path d="M40.991 12.3688C37.2277 12.2953 35.8224 13.9553 34.9031 14.8954C32.3783 17.7795 32.2592 20.6734 32.0592 23.6701C31.5352 30.2413 43.8397 27.7146 43.1585 32.0824C42.9584 33.6003 42.3153 35.3631 40.7957 35.8381C39.8096 36.2249 38.1519 36.3571 36.2988 36.3914V36.4159H27.9815L27.1288 39.1384C26.7239 40.289 27.3479 41.2635 28.496 41.2635H42.039C44.3637 41.1557 46.0071 40.4898 47.7268 39.1922C50.5707 36.7733 51.895 28.6499 50.1753 26.4807C48.0078 23.959 43.9635 23.5917 41.7198 23.0139C38.8712 22.0738 39.4714 20.4873 39.8763 18.8959C40.5194 16.5896 42.4391 17.0548 44.1588 16.952H50.6517C51.0518 17.0597 51.5758 16.952 51.8569 16.7708C52.0569 16.6631 52.3761 16.3007 52.3761 16.0118L53.2955 12.3639H40.991V12.3688Z" fill="white"/>
<path d="M100.008 13.5635C98.636 12.6283 97.4022 12.3737 94.8823 12.3737H80.5008L74.7416 33.4289L73.2315 38.962H73.222L73.0791 39.4811C72.8742 40.3135 73.1982 40.4947 73.3982 40.7836C73.7222 41.0725 74.1223 41.1606 74.6415 41.2683H82.2538C81.6107 41.1606 81.0963 41.0725 80.8962 40.7836C80.6961 40.4947 80.3722 40.0589 80.4913 39.4811L82.7445 31.4311H90.2663C93.0292 31.4311 94.4726 30.8876 95.916 30.1335C100.722 27.8223 103.362 16.5211 100.003 13.5586L100.008 13.5635ZM91.5954 25.5112C90.9523 26.0547 89.828 26.5199 88.7086 26.6325H84.0926L86.8603 16.7414H91.4667C92.186 16.7414 92.8958 16.8246 93.4341 17.3535C94.1534 18.1124 93.5532 23.9638 91.5906 25.5112H91.5954Z" fill="white"/>
<path d="M59.1166 12.4226H56.3394C56.0584 12.4226 55.6582 12.4912 55.4582 12.5989C55.2581 12.6723 54.9389 12.9612 54.9389 13.2452L54.0005 17.2164H54.8103C55.0342 17.1821 55.2724 17.1821 55.4582 17.1821H61.7509L55.5391 40.24C55.5391 40.6024 55.7392 40.8913 55.9393 40.9647C56.0203 40.9647 56.4204 41.2634 56.6253 41.2634H64.2376C64.5186 41.2634 63.4373 41.0676 63.3515 40.8913C63.3515 40.7836 63.1515 40.4212 63.1515 40.24L69.0822 17.1821H76.0562C76.5802 17.1821 76.8565 17.0009 77.0613 16.8932C77.2614 16.8246 77.3805 16.5308 77.5853 16.1685L78.4999 12.4373H59.1214V12.4226H59.1166Z" fill="white"/>
<path d="M112.96 13.779H112.955L113.313 12.4129H111.731L111.722 12.4031H105.681L105.424 13.3775C105.415 13.4999 105.391 13.6321 105.353 13.7741L98.4597 39.6574C98.2596 40.7053 98.4597 40.5975 98.7836 40.8864C98.9837 41.0676 99.5077 41.2586 99.8268 41.2586H107.32C106.996 41.2586 106.477 40.8864 106.401 40.7004C106.158 40.4115 106.077 40.5926 106.158 39.5791L112.96 13.7643V13.779Z" fill="white"/>
<path d="M174.416 10.8998C174.849 11.0907 175.75 11.4286 176.488 11.4286C176.95 11.4286 177.136 11.2866 177.136 11.1054C177.136 10.89 176.912 10.7186 176.317 10.5031C175.526 10.1947 174.64 9.69032 174.64 8.73548C174.64 7.26651 176.002 6.4292 177.874 6.4292C178.775 6.4292 179.461 6.59568 179.842 6.79155L179.284 8.37804C178.956 8.25072 178.427 8.07934 177.712 8.07934C177.293 8.07934 177.031 8.18707 177.031 8.40252C177.031 8.55921 177.308 8.75017 177.874 8.97052C178.537 9.21535 179.618 9.64135 179.618 10.7627C179.618 12.3002 178.194 13.113 176.236 13.0836C175.288 13.0592 174.335 12.8388 173.859 12.4912L174.411 10.9047L174.416 10.8998Z" fill="#C5A86F"/>
<path d="M163.836 6.42432C162.159 6.43411 160.949 6.8748 160.454 7.09025L160.573 8.52984C161.249 8.19688 162.25 7.97653 162.993 7.97653C163.941 7.97653 164.093 8.25563 164.036 8.51026L163.988 8.72081C163.017 8.64736 162.154 8.68164 161.416 8.94605C160.344 9.32309 159.596 9.99392 159.368 10.9879C159.172 11.8448 159.649 12.6283 160.597 12.8976C161.626 13.1914 162.721 13.0886 163.784 12.8829C164.713 12.7017 165.775 12.8192 165.775 12.8192C165.775 12.501 165.865 11.9183 166.003 11.2964L166.48 9.18598C166.837 7.62398 166.261 6.41452 163.831 6.42921L163.836 6.42432ZM161.873 10.4199C162.226 10.0576 162.879 9.92047 163.793 9.95475C163.793 9.95475 163.617 10.7382 163.474 11.3699C162.831 11.551 161.992 11.693 161.735 11.3943C161.526 11.1446 161.526 10.7774 161.878 10.4199H161.873Z" fill="#C5A86F"/>
<path d="M171.877 6.58595C171.196 6.58595 170.567 6.78671 170.105 7.09519L170.658 4.2356H168.028L166.88 10.1751C166.799 10.562 166.751 10.9194 166.751 11.2965C166.737 12.4423 167.528 13.2453 169.405 13.2453C172.692 13.2453 174.026 10.846 174.026 8.89713C174.026 7.57995 173.235 6.59085 171.877 6.59085V6.58595ZM169.881 11.4972C169.524 11.4972 169.248 11.2916 169.224 10.89C169.195 10.6305 169.248 10.4004 169.286 10.2094L169.314 10.0429C169.524 8.96079 170.148 8.41727 170.767 8.41727C171.244 8.41727 171.544 8.77472 171.544 9.34272C171.544 10.3759 170.777 11.4972 169.881 11.4972Z" fill="#C5A86F"/>
<path d="M156.976 10.8215L158.248 4.23071H155.285C155.285 4.23071 153.985 11.0027 153.866 11.5756C153.751 12.1534 154.018 12.9221 154.947 12.9221H158.544L158.944 10.8166H156.972L156.976 10.8215Z" fill="#C5A86F"/>
<path d="M152.846 6.31176C152.684 4.59796 151.193 4.23071 149.521 4.23071H146.029L144.348 12.9417H146.987L148.373 5.75355C149.026 5.75355 149.44 5.72906 149.85 5.85637C150.255 5.98369 150.483 6.33134 150.393 6.91893C150.274 7.70728 149.507 8.29487 148.292 8.48583C148.688 8.8237 149.031 9.73936 149.178 10.8019C149.326 11.8596 149.455 12.6871 149.55 12.9466H152.065C151.846 12.4276 151.693 11.2377 151.546 10.3563C151.427 9.6708 151.293 9.22032 150.76 8.91184L150.769 8.85797C151.984 8.6719 152.961 7.62893 152.837 6.31176H152.846Z" fill="#D7000F"/>
<path d="M141.356 12.9417H144.015L143.376 4.23071H139.37L135.14 12.9417H137.574L138.636 10.7627H141.199L141.361 12.9417H141.356ZM139.513 8.94611L140.861 6.16976L141.061 8.94611H139.513Z" fill="#D7000F"/>
<path d="M133.587 4.2356L132.606 9.33782L130.953 4.2356H130.543H128.68H127.642L125.965 12.9417H128.861L129.847 7.83458L131.5 12.9417H131.91H133.768H134.802L136.483 4.2356H133.587Z" fill="#D7000F"/>
<path d="M216.584 5.09241H217.28C217.427 5.09241 217.494 5.12669 217.561 5.39111C217.894 6.75235 219.009 6.93353 219.028 6.93842C219.028 6.93842 219.061 6.94822 219.104 6.94822C219.175 6.94822 219.228 6.93353 219.275 6.90415C219.318 6.87477 219.376 6.81111 219.376 6.69359C219.376 6.50263 219.123 6.36552 219.09 6.35083C218.49 6.06683 218.342 5.31766 218.342 5.31766C218.313 4.8329 218.051 4.56848 217.603 4.56848C217.603 4.56848 216.012 4.56848 215.789 4.56848C215.789 5.77793 215.355 6.20394 214.898 6.44877V6.91884C216.027 6.66421 216.455 5.93463 216.589 5.09731L216.584 5.09241Z" fill="white"/>
<path d="M218.361 7.0708C218.361 6.8993 218.251 6.7915 218.075 6.7915H215.86V7.355H218.075C218.208 7.355 218.361 7.2815 218.361 7.0708Z" fill="white"/>
<path d="M216.86 12.1288C216.922 12.0455 216.903 11.9084 216.822 11.8007C216.622 11.5412 216.46 11.5461 216.46 11.1446V10.4346H215.579C215.579 10.4346 215.579 10.6941 215.579 10.934C215.579 11.174 215.531 11.1837 215.407 11.4286C215.284 11.6685 214.964 12.0455 214.741 12.2561C214.688 12.3002 214.636 12.3785 214.636 12.4715C214.636 12.5793 214.674 12.7066 214.874 12.7066C215.036 12.7066 215.555 12.3295 216.017 11.7713C216.217 12.026 216.46 12.1631 216.603 12.1973C216.703 12.2218 216.789 12.212 216.856 12.1288H216.86Z" fill="white"/>
<path d="M211.625 10.0037C211.554 9.9205 211.444 9.90091 211.368 9.96456C211.306 10.0086 211.306 10.0576 211.306 10.1262V10.1751C211.306 10.557 211.101 11.2132 210.825 11.698L210.768 11.8057H210.877C210.877 11.8057 211.144 11.8106 211.315 11.8106C211.487 11.8106 211.511 11.8106 211.52 11.7616C211.792 10.9488 211.768 10.1653 211.625 10.0086V10.0037Z" fill="white"/>
<path d="M212.363 11.7518C212.501 10.9047 212.349 10.0967 212.177 9.95963C212.092 9.89108 211.982 9.89597 211.916 9.96942C211.863 10.0233 211.868 10.0771 211.877 10.1408V10.1898C211.949 10.5472 211.873 11.1887 211.697 11.7175L211.668 11.8105H212.354L212.363 11.7518Z" fill="white"/>
<path d="M212.53 11.8056H213.192V11.737C213.221 10.8557 212.954 10.0575 212.759 9.9498C212.664 9.90083 212.559 9.92042 212.502 10.0037C212.459 10.0673 212.473 10.1163 212.492 10.1799L212.506 10.2289C212.616 10.5619 212.635 11.1788 212.54 11.7224L212.53 11.8056Z" fill="white"/>
<path d="M219.414 12.2561C219.204 12.0602 218.951 11.7909 218.809 11.5216C218.666 11.2572 218.628 11.2572 218.628 11.0026V10.4346H217.737V10.9781C217.737 11.1446 217.746 11.1152 217.618 11.3943C217.489 11.6734 217.151 12.0309 216.908 12.2561C216.86 12.3002 216.808 12.3834 216.808 12.4715C216.808 12.5793 216.851 12.7066 217.041 12.7066C217.179 12.7066 217.561 12.5058 217.932 12.0847C218.013 11.9966 218.104 11.8986 218.18 11.8056C218.261 11.8986 218.308 12.0015 218.389 12.0798C218.761 12.5058 219.142 12.7066 219.28 12.7066C219.476 12.7066 219.514 12.5793 219.514 12.4715C219.514 12.3834 219.461 12.3002 219.414 12.2561Z" fill="white"/>
<path d="M214.688 9.69032C214.688 9.64136 214.688 9.60218 214.688 9.5826C214.688 9.1517 214.393 8.89218 213.897 8.89218H213.812V8.0108H214.316C214.507 8.0108 214.621 7.90797 214.621 7.7268C214.621 7.54562 214.507 7.4428 214.316 7.4428H213.812V6.56141H214.316C214.507 6.56141 214.621 6.45859 214.621 6.27741C214.621 6.09624 214.507 5.99341 214.316 5.99341H213.812V5.11203H214.445C214.631 5.11203 214.75 5.0043 214.75 4.83292C214.75 4.75458 214.721 4.55872 214.445 4.55872H211.411V8.60328C211.411 9.04398 211.511 9.45039 212.254 9.45039H213.53C213.645 9.45039 213.731 9.46508 213.74 9.62667C213.764 9.90577 213.769 10.3465 213.773 10.6207C213.602 10.2094 213.397 9.92536 213.268 9.88619C213.168 9.85681 213.111 9.88619 213.073 9.97432C213.04 10.0478 213.064 10.0918 213.092 10.1506L213.116 10.1947C213.297 10.5081 213.43 11.1495 213.435 11.7175V11.7861L213.731 11.8007C213.664 12.2414 213.511 12.261 213.23 12.261H212.64C212.502 12.261 212.335 12.3345 212.335 12.545C212.335 12.7556 212.497 12.829 212.64 12.829H213.483C213.983 12.829 214.378 12.7409 214.598 11.6734C214.702 11.1642 214.688 10.0625 214.688 9.68543V9.69032ZM212.94 8.88729H212.625C212.354 8.88729 212.325 8.83832 212.325 8.56901V8.0059H212.94V8.88729ZM212.94 5.99831H212.325V6.56141H212.94V7.4428H212.325C212.325 6.48796 212.325 5.12672 212.325 5.11692H212.945V5.99831H212.94Z" fill="white"/>
<path d="M217.946 10.1604H218.409C218.909 10.1604 219.133 9.93511 219.133 9.43076V8.42207C219.133 7.92751 218.909 7.70227 218.409 7.70227H217.222V9.43076C217.222 9.93511 217.446 10.1604 217.946 10.1604ZM217.999 8.25558H218.242C218.328 8.25558 218.351 8.25558 218.351 8.3731V9.48462C218.351 9.55644 218.27 9.59235 218.108 9.59235C218.023 9.59235 217.999 9.59235 217.999 9.48462V8.25558Z" fill="white"/>
<path d="M215.088 7.70227H215.083V9.43076C215.083 9.93511 215.307 10.1604 215.808 10.1604H216.236C216.736 10.1604 216.96 9.93511 216.96 9.43076V8.42207C216.96 7.92751 216.736 7.70227 216.236 7.70227H215.088ZM216.189 9.48952C216.189 9.56134 216.112 9.59724 215.96 9.59724C215.874 9.59724 215.85 9.59724 215.85 9.48952V8.26048H216.079C216.155 8.26048 216.189 8.26538 216.189 8.378V9.48952Z" fill="white"/>
<path d="M200.035 11.8596C199.978 11.8106 199.916 11.7518 199.849 11.7078C199.344 11.3601 198.611 10.6893 198.173 9.26927C199.163 8.92162 199.611 8.22141 199.692 7.71216L199.702 7.62892H198.544L198.53 7.68278C198.458 7.99616 198.335 8.45154 197.992 8.63272C197.915 8.20182 197.834 7.39878 197.815 6.86505H198.487C198.687 6.86505 198.806 6.75243 198.806 6.57126C198.806 6.39009 198.687 6.27747 198.487 6.27747H193.638V6.86505H194.91C194.671 7.20781 194.162 7.95699 192.752 8.56906C192.675 8.60334 192.523 8.68168 192.523 8.86775C192.523 9.05382 192.661 9.16644 192.79 9.16644C192.933 9.16644 193.347 8.99506 193.728 8.83348C194.171 8.64251 194.833 8.17734 195.386 7.75623C195.438 7.81989 195.486 7.88844 195.553 8.00106C194.49 9.25948 193.118 9.92541 192.613 10.1164C192.456 10.1702 192.39 10.2633 192.39 10.4053C192.39 10.5669 192.513 10.6991 192.661 10.6991C192.823 10.6991 194.652 10.0919 195.962 8.9412C195.996 9.03424 196.019 9.12237 196.053 9.25458C195.091 10.3612 193.876 11.1985 192.432 11.698C192.347 11.7274 192.161 11.7959 192.161 12.0065C192.161 12.1778 192.294 12.2905 192.418 12.2905C192.542 12.2905 194.547 11.7371 196.181 10.4004C196.243 11.1545 196.096 11.8645 195.881 12.0995C195.743 12.2464 195.572 12.2464 195.395 12.2464H194.733C194.533 12.2464 194.414 12.359 194.414 12.5402C194.414 12.7556 194.586 12.834 194.733 12.834H196.029C196.834 12.834 197.263 12.1631 197.263 10.89C197.263 9.36231 196.791 8.17244 195.867 7.35471C196.086 7.16375 196.191 7.02664 196.334 6.86995H196.758C197.029 9.19093 197.672 10.4493 198.32 11.223C198.83 11.8302 199.516 12.31 199.902 12.4178C200.045 12.4569 200.164 12.2856 200.164 12.124C200.164 11.982 200.073 11.9036 200.03 11.8645L200.035 11.8596Z" fill="white"/>
<path d="M184.806 10.0478H185.787C186.135 10.0478 186.492 9.97436 186.492 9.45532V7.96677C186.492 7.44773 186.135 7.36938 185.787 7.36938H184.082V7.43794C184.082 7.43794 184.086 7.54076 184.086 7.96187V9.45043C184.086 9.96946 184.444 10.0429 184.801 10.0429L184.806 10.0478ZM184.934 8.13815V7.9129H185.43C185.634 7.9129 185.654 7.93249 185.654 8.13325V9.27905C185.654 9.47001 185.639 9.50429 185.43 9.50429H185.163C184.953 9.50429 184.934 9.47001 184.934 9.27905V8.13815Z" fill="white"/>
<path d="M189.546 4.3728H182.672V11.8058C182.672 12.2857 182.8 12.8341 183.786 12.8341H189.546C190.308 12.8341 190.665 12.506 190.665 11.8058V5.39619C190.665 4.95549 190.551 4.3728 189.546 4.3728ZM189.569 11.8792C189.569 12.222 189.436 12.2808 189.16 12.2808H184.172C183.82 12.2808 183.763 12.1584 183.763 11.8792V4.91143H189.16C189.474 4.91143 189.569 5.00936 189.569 5.32274V11.8744V11.8792Z" fill="white"/>
<path d="M186.464 10.7335C186.464 10.5669 186.349 10.464 186.159 10.464H184.091V10.9883H186.159C186.349 10.9883 186.464 10.8903 186.464 10.7335Z" fill="white"/>
<path d="M188.369 7.51631C188.316 7.99617 188.145 8.72576 187.84 9.32314C187.769 8.89225 187.669 7.74645 187.664 6.76224H189.017C189.217 6.76224 189.341 6.65941 189.341 6.48803C189.341 6.28237 189.164 6.21382 189.017 6.21382H188.974C188.831 5.84658 188.621 5.56747 188.359 5.40589C188.312 5.3863 188.259 5.37651 188.216 5.37651C188.074 5.37651 187.988 5.46464 187.978 5.60665C187.978 5.69968 188.031 5.79761 188.069 5.86616C188.078 5.88085 188.088 5.89554 188.093 5.90534C188.14 6.01796 188.174 6.11099 188.207 6.21382H187.659V5.36182H186.64V6.21382H184.034V6.76224H186.659C186.702 8.3879 186.873 9.20073 187.207 10.2535C186.902 10.8068 186.378 11.2475 185.992 11.5217L185.963 11.5413C185.877 11.6 185.773 11.6735 185.773 11.7861C185.773 11.9673 185.901 12.0114 186.011 12.0114C186.206 12.0114 187.006 11.5119 187.526 10.9194C187.64 11.1545 187.764 11.3258 187.912 11.5168C188.183 11.8155 188.407 12.0261 188.807 12.0261H188.964C189.26 12.0261 189.288 11.84 189.288 11.7616C189.288 11.6784 189.26 11.4825 188.964 11.4825H188.836C188.669 11.4825 188.483 11.3112 188.355 11.0369C188.355 11.0369 188.154 10.7334 188.074 10.3563C188.693 9.60225 189.164 8.55438 189.341 7.54569L189.355 7.46734L188.378 7.45755V7.51631H188.369Z" fill="white"/>
<path d="M245.957 7.24706C245.957 7.07556 245.847 6.97266 245.657 6.97266H243.37V7.52636H245.657C245.847 7.52636 245.957 7.41856 245.957 7.25196V7.24706Z" fill="white"/>
<path d="M241.064 7.72676C241.103 7.61903 241.731 5.77302 241.774 5.63592C241.817 5.50371 241.893 5.24909 241.898 5.11688C241.908 4.92592 241.793 4.61743 241.312 4.61743H239.13V12.1631C239.13 12.3295 239.054 12.829 239.554 12.829C240.055 12.829 240.035 12.3295 240.035 12.1631V5.48412C240.035 5.32254 240.035 5.22461 240.04 5.16585H240.845C240.893 5.16585 240.841 5.17074 240.864 5.20992C240.879 5.2295 240.888 5.25399 240.874 5.31764C240.864 5.3813 240.255 7.21262 240.236 7.29096C240.216 7.36931 240.174 7.54069 240.174 7.61413C240.174 7.73165 240.174 7.82469 240.25 7.9422C240.364 8.13317 240.721 8.40738 240.898 8.77462C241.222 9.42097 241.207 10.0624 240.45 10.2779C240.312 10.317 240.164 10.4346 240.159 10.6255C240.159 10.8067 240.288 10.9683 240.478 10.983C240.702 11.0026 241.017 10.8801 241.164 10.792C241.493 10.5864 241.912 10.1848 241.912 9.55318C241.912 8.44165 241.064 7.73655 241.055 7.72186L241.064 7.72676Z" fill="white"/>
<path d="M246.805 9.05868C247.081 9.05868 247.109 8.86772 247.109 8.78448C247.109 8.6082 246.995 8.50537 246.714 8.50537H242.127V9.05379H243.06C243.06 9.91069 243.032 10.4346 242.727 11.174C242.436 11.8791 241.703 12.3051 241.645 12.3394C241.512 12.4177 241.474 12.4863 241.474 12.5842C241.469 12.7458 241.593 12.8241 241.712 12.8241C241.917 12.8241 242.536 12.6577 243.179 11.9428C243.851 11.1985 244.061 10.2437 244.061 9.05379H244.799V11.8791C244.799 12.7115 245.294 12.8241 245.776 12.8241H246.8C246.943 12.8241 247.105 12.7507 247.105 12.545C247.105 12.4422 247.067 12.2659 246.8 12.2659H246.171C245.88 12.2659 245.828 12.2072 245.828 11.9085V9.05379H246.8L246.805 9.05868Z" fill="white"/>
<path d="M246.19 5.34215H245.142V4.21594H244.085V5.34215H242.132V6.9874H243.118V6.22843C243.118 6.06195 243.118 5.95912 243.118 5.90036H245.614C245.895 5.90036 246.104 5.95912 246.104 6.22843V6.4243C246.104 6.61037 246.104 7.10002 246.609 7.10002C247.114 7.10002 247.114 6.63485 247.114 6.4145V6.22843C247.114 5.60657 246.838 5.34215 246.19 5.34215Z" fill="white"/>
<path d="M230.989 5.56748H232.352C232.29 5.97389 232.123 6.39989 231.89 6.75734C231.69 7.06093 231.437 7.28617 231.142 7.45755C230.861 7.62404 230.737 7.64852 230.756 7.78562C230.775 7.93742 230.966 7.91293 230.98 7.91293C231.37 7.88845 231.828 7.72197 232.328 7.31555C232.938 6.821 233.223 6.04734 233.328 5.56748H234.457V7.15886C234.457 7.531 234.562 7.91293 235.343 7.91293H236.83C237.125 7.91293 237.153 7.73176 237.158 7.72687C237.177 7.63383 237.158 7.56038 237.111 7.49673C237.049 7.42328 236.93 7.389 236.768 7.389H235.734C235.443 7.389 235.424 7.34004 235.424 7.09031V5.56748H236.415C236.72 5.56748 236.763 5.61155 236.763 5.91024V6.36562C236.763 6.36562 236.73 6.89934 237.125 6.99238C237.182 7.02176 237.268 7.02666 237.315 7.02666C237.568 7.02666 237.868 6.91893 237.868 6.40969V5.93472C237.868 5.15616 237.354 5.05334 236.853 5.05334H234.429V4.23071H233.309V5.05334H229.87V7.01686H230.98C230.98 7.01686 230.98 5.63603 230.98 5.57727L230.989 5.56748Z" fill="white"/>
<path d="M237.42 12.2366H236.739C236.439 12.2366 236.382 12.1778 236.382 11.8742V9.56796C236.382 9.45534 236.339 9.25947 236.191 9.12237C236.048 8.98037 235.834 8.92651 235.539 8.92651H233.705C233.786 8.5005 233.819 8.09409 233.833 7.75623H232.676C232.676 8.17243 232.642 8.56416 232.595 8.92651H230.351V9.48961H232.49C232.361 10.0086 232.171 10.464 231.894 10.8607C231.47 11.4629 230.932 11.9232 230.227 12.266C230.141 12.3051 229.898 12.3786 229.898 12.594C229.898 12.7116 229.989 12.8438 230.175 12.8389C230.37 12.8291 231.518 12.5451 232.576 11.3797C233.085 10.8166 233.39 10.1409 233.571 9.48961H235.105C235.2 9.48961 235.267 9.54347 235.277 9.62182V11.8498C235.277 12.7018 235.791 12.8144 236.291 12.8144H237.411C237.558 12.8144 237.73 12.7409 237.73 12.5255C237.73 12.4178 237.687 12.2415 237.411 12.2415L237.42 12.2366Z" fill="white"/>
<path d="M228.579 7.73656H228.083V5.12669H228.431C228.627 5.12669 228.746 5.02386 228.746 4.84759C228.746 4.67131 228.627 4.56848 228.431 4.56848H224.454V5.13159H225.025V7.74146H224.239V8.30457H225.02C225.02 9.32795 224.968 10.1506 224.773 10.7675C224.616 11.2621 224.43 11.6881 224.092 12.07C223.863 12.3247 223.782 12.3834 223.763 12.5205C223.749 12.6527 223.849 12.8339 224.02 12.8339C224.168 12.8339 224.325 12.736 224.544 12.5793C224.792 12.403 225.182 11.9721 225.463 11.4873C225.783 10.9438 226.04 10.1897 226.102 8.30946H227.012V12.1778C227.012 12.7262 227.307 12.8388 227.55 12.8388C227.793 12.8388 228.088 12.7262 228.088 12.1778V8.30946H228.584C228.779 8.30946 228.898 8.20174 228.898 8.03036C228.898 7.81981 228.731 7.74636 228.584 7.74636L228.579 7.73656ZM227.007 7.73656H226.097V5.12669H227.007V7.73656Z" fill="white"/>
<path d="M223.982 11.2229V8.1332C223.982 7.57499 223.72 7.33016 223.101 7.33016H222.257C222.429 6.77195 222.696 5.85629 222.767 5.12181L223.787 5.1316C223.987 5.1316 224.101 5.02388 224.101 4.8476C224.101 4.67132 223.982 4.5636 223.787 4.5636H220.714V5.1316H221.524C221.481 7.38402 220.9 8.52493 220.4 9.59238C220.323 9.75397 220.214 9.87638 220.276 10.0037C220.314 10.082 220.409 10.1212 220.495 10.1163C220.581 10.1163 220.857 10.0429 221.319 9.43079V11.2229C221.319 11.786 221.586 12.026 222.2 12.026H223.101C223.715 12.026 223.982 11.786 223.982 11.2229ZM223.039 11.1789C223.039 11.4335 222.767 11.4629 222.524 11.4629H222.858C222.61 11.4629 222.334 11.4286 222.334 11.1789V8.17727C222.334 8.03037 222.334 7.93734 222.334 7.88348H222.519C222.758 7.88348 223.034 7.91775 223.034 8.17727V11.1789H223.039Z" fill="white"/>
<path d="M193.109 5.4058H198.844C199.125 5.4058 199.149 5.67511 199.149 5.95421V6.18435C199.149 6.35083 199.149 6.86497 199.702 6.86497C200.078 6.86497 200.264 6.63484 200.264 6.18435V5.66042C200.264 5.08752 199.997 4.83779 199.378 4.83779H196.677V4.22083H195.576V4.83779H192.023V6.86987H193.104V5.4058H193.109Z" fill="white"/>
<path d="M208.805 12.3002C208.776 12.2953 208.748 12.2904 208.719 12.2855C208.286 12.1974 207.862 11.9868 207.624 11.7665H208.181C208.805 11.7665 209.072 11.5216 209.072 10.9438V9.41612C209.072 8.84811 208.8 8.59839 208.181 8.59839H202.274V8.66694C202.274 8.66694 202.274 8.8726 202.274 9.41612V10.9438C202.274 11.5167 202.541 11.7665 203.165 11.7665H203.584C203.341 11.9868 203.046 12.1974 202.617 12.2855C202.584 12.2855 202.56 12.2953 202.526 12.3002C202.326 12.3345 202.098 12.3785 202.107 12.5744C202.117 12.7409 202.222 12.829 202.388 12.829H202.426C203.069 12.829 203.655 12.6528 204.041 12.501C204.594 12.2855 204.894 11.9721 205.018 11.7616H206.318C206.447 11.9721 206.747 12.2855 207.295 12.501C207.681 12.6479 208.267 12.829 208.91 12.829H208.943C209.11 12.829 209.215 12.736 209.219 12.5744C209.229 12.3785 209.005 12.3345 208.8 12.3002H208.805ZM207.967 10.3709H203.384V9.99881H207.967V10.3709ZM203.384 9.13701H207.69C207.871 9.13701 207.914 9.16639 207.938 9.19577C207.967 9.23494 207.967 9.36715 207.967 9.48956H203.384V9.13701ZM203.784 11.2181C203.522 11.2181 203.389 11.1838 203.384 10.8753H207.967C207.967 11.1838 207.947 11.2181 207.69 11.2181H203.784Z" fill="white"/>
<path d="M209.743 6.78666H208.919V6.66914C208.919 6.50265 208.896 6.36555 208.853 6.24803C208.934 6.34107 209.057 6.39983 209.248 6.39983C209.496 6.39983 209.791 6.28231 209.791 5.73389V5.60169C209.791 5.10224 209.491 4.82803 208.943 4.82803H206.195V4.21106H205.104V4.82803H201.536V6.39003H202.407V6.78666H201.264V7.32038H202.407V7.47707C202.407 8.04997 202.674 8.2997 203.298 8.2997H208.029C208.653 8.2997 208.915 8.05487 208.915 7.47707V7.32038H209.739C209.939 7.32038 210.058 7.22735 210.058 7.04617C210.058 6.87969 209.939 6.78666 209.739 6.78666H209.743ZM207.59 6.36555C207.871 6.36555 207.895 6.4341 207.895 6.78666H206.166V6.36555H207.59ZM208.467 5.39113C208.662 5.39113 208.71 5.4401 208.71 5.63596V5.73389C208.71 5.80734 208.71 5.94934 208.757 6.08645C208.619 5.91996 208.381 5.84651 208.033 5.84651H202.617V5.39113H208.467ZM203.47 6.36555H205.142V6.78666H203.47V6.36555ZM203.47 7.40852V7.32038H205.142V7.77576H203.784C203.494 7.77576 203.47 7.68273 203.47 7.41342V7.40852ZM207.895 7.40852C207.895 7.69252 207.876 7.77087 207.59 7.77087H206.166V7.31549H207.895V7.40362V7.40852Z" fill="white"/>
<path d="M319.993 44.2796C319.993 43.8047 319.984 43.3982 319.955 43.0457H320.994L321.041 43.6627H321.07C321.303 43.3346 321.737 42.9527 322.537 42.9527C323.161 42.9527 323.652 43.2611 323.857 43.7214H323.876C324.042 43.4913 324.238 43.3199 324.461 43.1975C324.728 43.0359 325.028 42.9478 325.419 42.9478C326.21 42.9478 327.015 43.4178 327.015 44.7497V47.2078H325.843V44.9064C325.843 44.216 325.567 43.8047 324.99 43.8047C324.581 43.8047 324.276 44.0593 324.152 44.358C324.123 44.4657 324.095 44.5881 324.095 44.7105V47.2078H322.918V44.7938C322.918 44.2111 322.656 43.7998 322.099 43.7998C321.651 43.7998 321.346 44.1082 321.236 44.402C321.189 44.5049 321.17 44.6224 321.17 44.7399V47.2029H319.993V44.2747V44.2796Z" fill="white"/>
<path d="M334.637 41.6944V42.8989H335.794V43.697H334.637V45.5577C334.637 46.067 334.794 46.3363 335.261 46.3363C335.466 46.3363 335.627 46.3118 335.737 46.2824L335.756 47.0953C335.58 47.154 335.261 47.1981 334.875 47.1981C334.427 47.1981 334.051 47.0708 333.827 46.8553C333.57 46.6154 333.45 46.2286 333.45 45.6753V43.6922H332.76V42.894H333.45V41.9392L334.641 41.6895L334.637 41.6944Z" fill="white"/>
<path d="M337.833 41.7188C337.833 42.042 337.562 42.2917 337.138 42.2917C336.714 42.2917 336.461 42.042 336.461 41.7188C336.461 41.3956 336.737 41.1361 337.147 41.1361C337.557 41.1361 337.824 41.3907 337.833 41.7188ZM336.533 47.1148V42.8989H337.762V47.1148H336.533Z" fill="white"/>
<path d="M343.526 44.9701C343.526 46.5223 342.273 47.2127 341.049 47.2127C339.681 47.2127 338.629 46.3901 338.629 45.0435C338.629 43.697 339.672 42.8058 341.125 42.8058C342.578 42.8058 343.526 43.6872 343.526 44.975V44.9701ZM339.886 45.0092C339.886 45.827 340.344 46.439 341.087 46.439C341.782 46.439 342.263 45.8417 342.263 44.9946C342.263 44.3335 341.925 43.5794 341.096 43.5794C340.267 43.5794 339.886 44.309 339.886 45.0092Z" fill="white"/>
<path d="M344.397 44.1524C344.397 43.6676 344.388 43.2612 344.359 42.894H345.426L345.484 43.5256H345.512C345.722 43.1975 346.246 42.796 347.051 42.796C347.856 42.796 348.766 43.271 348.766 44.6078V47.1099H347.546V44.7253C347.546 44.1181 347.289 43.6627 346.627 43.6627C346.141 43.6627 345.803 43.9663 345.674 44.2895C345.631 44.3825 345.622 44.5147 345.622 44.6371V47.1148H344.393V44.1524H344.397Z" fill="white"/>
<path d="M331.617 46.8651C331.264 47.1099 330.607 47.296 330.111 47.3009C329.887 47.3009 329.654 47.2862 329.401 47.247C328.377 47.0903 327.939 46.5664 327.939 45.9592C327.939 44.8917 329.049 44.3531 330.873 44.3629V44.2944C330.873 44.0153 330.74 43.555 329.868 43.555C329.382 43.555 328.873 43.6872 328.539 43.8684L328.296 43.1779C328.658 42.987 329.301 42.8009 330.083 42.8009C331.664 42.8009 332.121 43.6578 332.121 44.5833V45.6899C332.121 46.1502 331.983 46.6055 331.612 46.87L331.617 46.8651ZM330.907 45.0582C330.021 45.0386 329.158 45.2051 329.158 45.8466C329.158 46.2628 329.487 46.4537 329.892 46.4537C330.392 46.4537 330.602 46.2677 330.716 46.1453C330.835 46.0228 330.907 45.7927 330.907 45.5871V45.0582Z" fill="white"/>
<path d="M249.343 45.303C249.377 46.0767 250.063 46.4096 250.849 46.4096C251.42 46.4096 251.83 46.3411 252.202 46.2187L252.383 46.9629C251.963 47.1147 251.382 47.2273 250.677 47.2273C249.091 47.2273 248.162 46.3753 248.162 45.0729C248.162 43.8879 248.981 42.7764 250.549 42.7764C252.116 42.7764 252.654 43.9124 252.654 44.8525C252.654 45.0533 252.635 45.2149 252.611 45.3079H249.343V45.303ZM251.487 44.5489C251.497 44.1523 251.297 43.506 250.477 43.506C249.715 43.506 249.396 44.1082 249.343 44.5489H251.487Z" fill="white"/>
<path d="M253.431 46.1452C253.712 46.297 254.245 46.4537 254.684 46.4537C255.227 46.4537 255.465 46.2627 255.465 45.9787C255.465 45.6947 255.265 45.538 254.665 45.352C253.712 45.068 253.312 44.6077 253.321 44.1083C253.321 43.3542 254.031 42.7715 255.165 42.7715C255.708 42.7715 256.179 42.8939 256.46 43.0212L256.222 43.7851C256.013 43.6822 255.622 43.5402 255.189 43.5402C254.755 43.5402 254.507 43.7214 254.507 43.9858C254.507 44.2503 254.736 44.3923 255.355 44.5832C256.237 44.8672 256.651 45.2589 256.661 45.8906C256.661 46.6594 255.97 47.2225 254.674 47.2225C254.083 47.2225 253.555 47.1001 253.193 46.9238L253.431 46.1403V46.1452Z" fill="white"/>
<path d="M258.409 45.303C258.438 46.0767 259.128 46.4096 259.909 46.4096C260.481 46.4096 260.896 46.3411 261.262 46.2187L261.443 46.9629C261.024 47.1147 260.443 47.2273 259.743 47.2273C258.156 47.2273 257.228 46.3753 257.228 45.0729C257.228 43.8879 258.047 42.7764 259.614 42.7764C261.181 42.7764 261.715 43.9124 261.715 44.8525C261.715 45.0533 261.696 45.2149 261.677 45.3079H258.409V45.303ZM260.553 44.5489C260.562 44.1523 260.362 43.506 259.543 43.506C258.781 43.506 258.461 44.1082 258.409 44.5489H260.553Z" fill="white"/>
<path d="M267.46 44.2454C267.46 43.6676 267.45 43.2562 267.417 42.8694H268.489L268.531 43.6822H268.57C268.808 43.08 269.384 42.7715 269.903 42.7715C270.027 42.7715 270.094 42.7764 270.194 42.796V43.8096C270.094 43.7949 269.984 43.7753 269.832 43.7753C269.241 43.7753 268.841 44.1082 268.727 44.593C268.708 44.6909 268.689 44.8036 268.689 44.926V47.1343H267.455V44.2405L267.46 44.2454Z" fill="white"/>
<path d="M274.434 47.007C274.177 47.1147 273.662 47.2273 273.052 47.2273C271.528 47.2273 270.537 46.3753 270.537 45.0533C270.537 43.7312 271.542 42.7764 273.252 42.7764C273.705 42.7764 274.167 42.8596 274.448 42.9771L274.229 43.7851C274.029 43.7067 273.738 43.6186 273.295 43.6186C272.352 43.6186 271.79 44.2258 271.804 45.0043C271.804 45.8808 272.457 46.3802 273.295 46.3802C273.729 46.3802 274.029 46.3019 274.267 46.2138L274.439 47.0119L274.434 47.007Z" fill="white"/>
<path d="M275.158 40.9109H276.401V43.4522H276.42C276.568 43.2514 276.768 43.085 277.03 42.9626C277.273 42.8401 277.563 42.7716 277.873 42.7716C278.702 42.7716 279.578 43.2514 279.578 44.6225V47.1393H278.345V44.7449C278.345 44.123 278.087 43.6579 277.401 43.6579C276.92 43.6579 276.582 43.937 276.449 44.2601C276.411 44.3483 276.401 44.4609 276.401 44.5833V47.1344H275.158V40.9109Z" fill="white"/>
<path d="M265.921 46.8748C265.564 47.1245 264.902 47.3057 264.402 47.3106C264.178 47.3106 263.94 47.3008 263.687 47.2567C262.653 47.1001 262.215 46.5712 262.215 45.9592C262.215 44.8819 263.33 44.3384 265.178 44.3482V44.2796C265.178 43.9956 265.045 43.5354 264.163 43.5354C263.673 43.5354 263.158 43.6676 262.815 43.8536L262.572 43.1485C262.939 42.9576 263.587 42.7715 264.378 42.7715C265.978 42.7715 266.44 43.6382 266.44 44.5685V45.6849C266.44 46.1501 266.302 46.6104 265.926 46.8748H265.921ZM265.207 45.0484C264.311 45.0337 263.439 45.2002 263.439 45.8465C263.439 46.2676 263.773 46.4586 264.178 46.4586C264.683 46.4586 264.897 46.2725 265.016 46.1452C265.135 46.0179 265.207 45.7878 265.207 45.5821V45.0435V45.0484Z" fill="white"/>
<path d="M247.238 45.4891C247.067 44.9211 246.776 44.5098 246.295 44.3531V44.3238C246.924 44.123 247.514 43.604 247.514 42.845C247.514 42.3455 247.305 41.9293 246.933 41.66C246.485 41.3271 245.819 41.1851 244.847 41.1851C244.137 41.1851 243.446 41.2389 242.984 41.3075V47.1344H244.208V42.0518C244.327 42.0273 244.575 41.9979 244.971 41.9979C245.771 41.9979 246.295 42.3015 246.295 42.9478C246.295 43.5158 245.557 43.9173 244.847 43.9173C245.466 44.3433 245.871 45.0534 246.047 45.7487C246.238 46.488 246.4 46.9679 246.495 47.1442H247.767C247.629 46.914 247.448 46.2334 247.238 45.494V45.4891Z" fill="white"/>
<path d="M219.99 44.4315L220.171 44.3678C220.804 44.1671 221.395 43.648 221.395 42.8842C221.395 42.3847 221.185 41.9734 220.814 41.6992C220.361 41.3711 219.704 41.2291 218.732 41.2291C218.022 41.2291 217.327 41.283 216.87 41.3515V47.1834H218.094V42.1007C218.213 42.0713 218.465 42.0518 218.856 42.0518C219.656 42.0518 220.18 42.3455 220.18 42.9968C220.18 43.5599 219.38 43.9222 218.094 43.7558C217.727 43.9369 217.451 44.1279 217.927 44.5098C218.075 44.6322 219.309 44.6567 219.999 44.4315H219.99Z" fill="white"/>
<path d="M162.831 47.2029C162.716 47.0707 162.602 46.9336 162.469 46.7769C162.107 47.0804 161.607 47.3008 160.949 47.3008C159.611 47.3008 159.015 46.4537 159.015 45.6213C159.015 44.8378 159.434 44.2747 160.068 43.9124V43.8879C159.83 43.599 159.639 43.1681 159.639 42.7372C159.639 41.988 160.201 41.1703 161.316 41.1703C162.173 41.1703 162.812 41.7089 162.812 42.5609C162.812 43.1583 162.478 43.6773 161.716 44.0837L161.707 44.118C162.026 44.5049 162.364 44.9358 162.636 45.2344C162.859 44.8574 163.031 44.309 163.107 43.7851H164.227C164.079 44.6909 163.798 45.4548 163.307 46.0375C163.617 46.4243 163.941 46.8111 164.284 47.2078H162.831V47.2029ZM161.883 46.0326C161.549 45.6702 161.097 45.1169 160.635 44.5685C160.406 44.7546 160.201 45.0092 160.201 45.396C160.201 45.9053 160.554 46.3313 161.14 46.3313C161.454 46.3313 161.721 46.1991 161.888 46.0326H161.883ZM161.259 42.0027C160.94 42.0027 160.768 42.2965 160.768 42.6099C160.768 42.9233 160.892 43.173 161.154 43.4619C161.554 43.173 161.754 42.9331 161.754 42.5952C161.754 42.3112 161.597 42.0027 161.278 42.0027H161.259Z" fill="white"/>
<path d="M226.926 40.9598H228.174V47.203H226.926V40.9598Z" fill="white"/>
<path d="M230.541 41.7089C230.541 42.0762 230.284 42.3749 229.865 42.3749C229.474 42.3749 229.217 42.0762 229.217 41.7089C229.217 41.3417 229.484 41.0381 229.884 41.0381C230.284 41.0381 230.532 41.327 230.541 41.7089ZM229.25 47.2029V42.9037H230.498V47.2029H229.25Z" fill="white"/>
<path d="M301.434 41.2781V47.2078H300.186V41.2781H301.434Z" fill="white"/>
<path d="M139.041 45.4205C139.07 46.1697 139.746 46.4978 140.508 46.4978C141.066 46.4978 141.466 46.4292 141.828 46.3117L142.009 47.0364C141.599 47.1833 141.028 47.2959 140.346 47.2959C138.798 47.2959 137.888 46.4684 137.888 45.1904C137.888 44.0348 138.689 42.9526 140.218 42.9526C141.747 42.9526 142.271 44.0642 142.271 44.9798C142.271 45.1757 142.252 45.3275 142.233 45.4254H139.041V45.4205ZM141.132 44.686C141.142 44.3041 140.947 43.6675 140.146 43.6675C139.403 43.6675 139.089 44.26 139.041 44.686H141.132Z" fill="white"/>
<path d="M143.052 44.2796C143.052 43.7998 143.043 43.3982 143.014 43.0408H144.072L144.129 43.6627H144.157C144.362 43.3395 144.882 42.9478 145.677 42.9478C146.473 42.9478 147.368 43.4178 147.368 44.735V47.2078H146.168V44.8574C146.168 44.26 145.915 43.8047 145.258 43.8047C144.777 43.8047 144.443 44.1033 144.319 44.4216C144.281 44.5196 144.267 44.6469 144.267 44.7644V47.2127H143.057V44.2894L143.052 44.2796Z" fill="white"/>
<path d="M134.573 47.0756C134.321 47.1785 133.825 47.2911 133.23 47.2911C131.748 47.2911 130.781 46.4636 130.781 45.1807C130.781 43.8978 131.758 42.9625 133.425 42.9625C133.863 42.9625 134.311 43.0458 134.583 43.1584L134.368 43.9418C134.173 43.8684 133.887 43.7803 133.458 43.7803C132.544 43.7803 131.996 44.3678 132.005 45.1268C132.005 45.9837 132.639 46.4685 133.458 46.4685C133.878 46.4685 134.173 46.3901 134.406 46.3069L134.573 47.0805V47.0756Z" fill="white"/>
<path d="M151.956 47.0805C151.708 47.1833 151.217 47.291 150.631 47.291C149.174 47.291 148.221 46.4782 148.221 45.21C148.221 43.9418 149.178 43.0261 150.822 43.0261C151.255 43.0261 151.694 43.1143 151.965 43.222L151.756 43.9956C151.565 43.9222 151.284 43.8341 150.865 43.8341C149.964 43.8341 149.426 44.4167 149.431 45.161C149.431 45.9983 150.06 46.4782 150.865 46.4782C151.279 46.4782 151.565 46.3999 151.794 46.3215L151.956 47.0854V47.0805Z" fill="white"/>
<path d="M153.456 45.4548C153.485 46.1942 154.147 46.5125 154.895 46.5125C155.443 46.5125 155.838 46.4439 156.191 46.3264L156.362 47.0364C155.957 47.1833 155.405 47.291 154.733 47.291C153.213 47.291 152.323 46.4782 152.323 45.2296C152.323 44.0985 153.109 43.0261 154.609 43.0261C156.11 43.0261 156.629 44.1181 156.629 45.0141C156.629 45.21 156.61 45.3569 156.591 45.4499H153.461L153.456 45.4548ZM155.509 44.735C155.524 44.358 155.328 43.741 154.542 43.741C153.814 43.741 153.504 44.3188 153.456 44.735H155.509Z" fill="white"/>
<path d="M235.086 47.0756C234.833 47.1833 234.329 47.2959 233.724 47.2959C232.218 47.2959 231.242 46.4586 231.242 45.1512C231.242 43.8438 232.233 42.9037 233.924 42.9037C234.371 42.9037 234.824 42.9918 235.1 43.0995L234.881 43.8977C234.686 43.8193 234.4 43.7312 233.962 43.7312C233.033 43.7312 232.475 44.3286 232.49 45.0973C232.49 45.9591 233.133 46.4537 233.962 46.4537C234.386 46.4537 234.686 46.3754 234.924 46.2872L235.091 47.0756H235.086Z" fill="white"/>
<path d="M136.774 41.7432C136.774 42.0664 136.507 42.321 136.074 42.321C135.64 42.321 135.392 42.0664 135.392 41.7432C135.392 41.4201 135.669 41.1556 136.083 41.1556C136.498 41.1556 136.764 41.4103 136.774 41.7432ZM135.464 47.2078V42.938H136.707V47.2078H135.464Z" fill="white"/>
<path d="M126.237 46.0326C126.637 46.2285 127.242 46.4047 127.871 46.4047C128.661 46.4047 129.1 46.0816 129.1 45.6017C129.1 45.1561 128.761 44.8917 127.899 44.6224C126.784 44.2698 126.075 43.7557 126.075 42.9086C126.075 41.944 126.999 41.2095 128.461 41.2095C129.195 41.2095 129.733 41.3466 130.081 41.5082L129.781 42.3749C129.538 42.2573 129.071 42.0909 128.437 42.0909C127.656 42.0909 127.318 42.4581 127.318 42.8009C127.318 43.2562 127.709 43.4668 128.609 43.7704C129.781 44.1523 130.352 44.6713 130.352 45.5234C130.352 46.4684 129.528 47.291 127.79 47.291C127.08 47.291 126.337 47.1147 125.965 46.9189L126.232 46.0277L126.237 46.0326Z" fill="white"/>
<path d="M210.91 42.9478L211.768 45.1806C211.868 45.4401 211.963 45.7535 212.035 45.9934H212.068C212.144 45.7535 212.235 45.445 212.32 45.1708L213.064 42.9478H214.354L213.159 45.7829C212.506 47.34 212.063 48.0353 211.496 48.4613C211.029 48.8285 210.539 48.9656 210.234 48.9999L209.962 48.1087C210.167 48.0696 210.424 47.9716 210.667 47.8198C210.891 47.6925 211.158 47.4428 211.32 47.1588C211.368 47.0805 211.401 47.0217 211.401 46.9727C211.401 46.9287 211.391 46.8699 211.334 46.7671L209.591 42.9478H210.91Z" fill="white"/>
<path d="M171.844 45.4646C171.872 46.2187 172.549 46.5418 173.311 46.5418C173.868 46.5418 174.269 46.4733 174.631 46.3558L174.807 47.0805C174.397 47.2274 173.83 47.3351 173.144 47.3351C171.596 47.3351 170.686 46.5076 170.686 45.2296C170.686 44.0789 171.491 42.9918 173.016 42.9918C174.54 42.9918 175.069 44.1033 175.069 45.0141C175.069 45.21 175.05 45.3667 175.031 45.4597H171.844V45.4646ZM173.94 44.7301C173.949 44.3482 173.754 43.7116 172.949 43.7116C172.206 43.7116 171.896 44.2992 171.844 44.7301H173.94Z" fill="white"/>
<path d="M185.935 44.3286C185.935 43.8536 185.925 43.4472 185.896 43.0897H186.954L187.016 43.7165H187.045C187.249 43.3884 187.769 42.9967 188.559 42.9967C189.393 42.9967 190.25 43.4668 190.25 44.7791V47.2518H189.05V44.9015C189.05 44.2992 188.798 43.8487 188.14 43.8487C187.664 43.8487 187.33 44.1474 187.202 44.4608C187.159 44.5587 187.154 44.6811 187.154 44.8035V47.2469H185.939V44.3237L185.935 44.3286Z" fill="white"/>
<path d="M208.862 42.938C208.848 43.1975 208.829 43.506 208.829 44.0299V46.1844C208.829 46.9777 208.643 47.5505 208.19 47.908C207.738 48.2606 207.109 48.3683 206.514 48.3683C205.956 48.3683 205.37 48.2703 204.994 48.0647L205.237 47.34C205.513 47.482 205.975 47.6289 206.504 47.6289C207.219 47.6289 207.752 47.3008 207.752 46.4782V46.1501H207.738C207.485 46.488 207.038 46.7132 206.466 46.7132C205.385 46.7132 204.618 45.9347 204.618 44.8574C204.618 43.6088 205.547 42.8547 206.59 42.8547C207.252 42.8547 207.643 43.1338 207.852 43.4472H207.866L207.914 42.9429H208.867L208.862 42.938ZM207.733 44.4608C207.733 44.3727 207.724 44.2796 207.695 44.2013C207.576 43.8487 207.266 43.5843 206.799 43.5843C206.185 43.5843 205.732 44.0544 205.732 44.8281C205.732 45.4744 206.104 45.9983 206.795 45.9983C207.204 45.9983 207.562 45.7633 207.69 45.4205C207.714 45.3177 207.738 45.1855 207.738 45.0778V44.4608H207.733Z" fill="white"/>
<path d="M179.77 47.1197C179.513 47.2274 178.999 47.34 178.389 47.34C176.865 47.34 175.874 46.488 175.874 45.1659C175.874 43.8439 176.874 42.889 178.589 42.889C179.042 42.889 179.504 42.9772 179.78 43.0898L179.561 43.8977C179.361 43.8194 179.07 43.7312 178.627 43.7312C177.689 43.7312 177.127 44.3335 177.136 45.117C177.136 45.9935 177.789 46.4929 178.627 46.4929C179.056 46.4929 179.361 46.4146 179.599 46.3264L179.77 47.1246V47.1197Z" fill="white"/>
<path d="M180.494 41.0234H181.738V43.5648H181.757C181.905 43.364 182.105 43.1975 182.367 43.0751C182.61 42.9527 182.895 42.8792 183.205 42.8792C184.039 42.8792 184.91 43.364 184.91 44.7301V47.247H183.677V44.8526C183.677 44.2356 183.415 43.7655 182.733 43.7655C182.252 43.7655 181.909 44.0446 181.781 44.3727C181.743 44.4608 181.733 44.5735 181.733 44.6959V47.247H180.49V41.0234H180.494Z" fill="white"/>
<path d="M196.038 45.0729C196.038 46.6447 194.771 47.3449 193.533 47.3449C192.151 47.3449 191.089 46.5076 191.089 45.1415C191.089 43.7753 192.142 42.8793 193.614 42.8793C195.086 42.8793 196.043 43.7753 196.043 45.0729H196.038ZM192.361 45.1219C192.361 45.9445 192.818 46.5664 193.575 46.5664C194.276 46.5664 194.766 45.9592 194.766 45.0974C194.766 44.4315 194.428 43.6725 193.585 43.6725C192.742 43.6725 192.366 44.407 192.366 45.1219H192.361Z" fill="white"/>
<path d="M203.817 45.0729C203.817 46.6447 202.55 47.3449 201.312 47.3449C199.93 47.3449 198.863 46.5076 198.863 45.1415C198.863 43.7753 199.916 42.8793 201.388 42.8793C202.86 42.8793 203.817 43.7753 203.817 45.0729ZM200.135 45.1219C200.135 45.9445 200.597 46.5664 201.35 46.5664C202.05 46.5664 202.541 45.9592 202.541 45.0974C202.541 44.4315 202.198 43.6725 201.354 43.6725C200.511 43.6725 200.13 44.407 200.13 45.1219H200.135Z" fill="white"/>
<path d="M168.114 42.4484H166.618V41.3221H170.872V42.4484H169.362V47.2519H168.114V42.4484Z" fill="white"/>
<path d="M196.686 41.0088H197.934V47.2519H196.686V41.0088Z" fill="white"/>
<path d="M226.278 45.0729C226.278 46.6447 225.016 47.3449 223.772 47.3449C222.391 47.3449 221.324 46.5076 221.324 45.1415C221.324 43.7753 222.377 42.8793 223.853 42.8793C225.33 42.8793 226.278 43.7753 226.278 45.0729ZM222.6 45.1219C222.6 45.9445 223.062 46.5664 223.815 46.5664C224.515 46.5664 225.006 45.9592 225.006 45.0974C225.006 44.4315 224.663 43.6725 223.825 43.6725C222.986 43.6725 222.6 44.407 222.6 45.1219Z" fill="white"/>
<path d="M237.091 42.9037L237.954 45.1316C238.049 45.3912 238.149 45.7045 238.22 45.9445H238.249C238.33 45.7045 238.416 45.3961 238.506 45.1218L239.249 42.8988H240.54L239.345 45.7339C238.692 47.291 238.249 47.9863 237.682 48.4074C237.211 48.7747 236.725 48.9118 236.42 48.9461L236.148 48.0598C236.353 48.0157 236.606 47.9227 236.853 47.7709C237.077 47.6436 237.344 47.3939 237.506 47.1148C237.554 47.0364 237.582 46.9776 237.582 46.9287C237.582 46.8846 237.573 46.8259 237.515 46.723L235.772 42.9037H237.096H237.091Z" fill="white"/>
<path d="M297.385 40.8962V45.9201C297.385 46.3559 297.404 46.8309 297.423 47.1198H296.318L296.27 46.4441H296.251C295.961 46.919 295.37 47.2177 294.655 47.2177C293.493 47.2177 292.574 46.351 292.574 45.0338C292.564 43.604 293.583 42.7569 294.755 42.7569C295.427 42.7569 295.908 43.0018 296.127 43.3151H296.146V40.8962H297.38H297.385ZM296.151 44.6274C296.151 44.5393 296.142 44.4316 296.122 44.3483C296.013 43.9272 295.622 43.5845 295.06 43.5845C294.269 43.5845 293.826 44.2014 293.826 44.9996C293.826 45.7977 294.269 46.351 295.051 46.351C295.551 46.351 295.994 46.0523 296.113 45.5872C296.146 45.4892 296.151 45.3864 296.151 45.2738V44.6323V44.6274Z" fill="white"/>
<path d="M287.453 44.123C287.453 43.6333 287.443 43.222 287.415 42.8548H288.496L288.558 43.4962H288.586C288.801 43.1633 289.33 42.7568 290.144 42.7568C290.959 42.7568 291.878 43.2416 291.878 44.5882V47.1197H290.644V44.7106C290.644 44.0985 290.382 43.6333 289.715 43.6333C289.225 43.6333 288.882 43.9369 288.753 44.265C288.71 44.358 288.701 44.4951 288.701 44.6175V47.1246H287.457V44.1279L287.453 44.123Z" fill="white"/>
<path d="M302.92 44.123C302.92 43.6333 302.911 43.222 302.882 42.8548H303.963L304.025 43.4962H304.059C304.268 43.1633 304.802 42.7568 305.612 42.7568C306.464 42.7568 307.346 43.2416 307.346 44.5882V47.1197H306.112V44.7106C306.112 44.0985 305.85 43.6333 305.178 43.6333C304.688 43.6333 304.349 43.9369 304.216 44.265C304.178 44.358 304.168 44.4951 304.168 44.6175V47.1246H302.925V44.1279L302.92 44.123Z" fill="white"/>
<path d="M286.047 46.8602C285.69 47.1099 285.028 47.296 284.528 47.3009C284.304 47.3009 284.066 47.2862 283.818 47.247C282.784 47.0854 282.341 46.5566 282.341 45.9494C282.341 44.8673 283.461 44.3238 285.304 44.3335V44.2601C285.304 43.981 285.171 43.5158 284.29 43.5158C283.794 43.5158 283.285 43.6431 282.942 43.8292L282.694 43.129C283.065 42.938 283.708 42.752 284.499 42.752C286.1 42.752 286.562 43.6186 286.562 44.549V45.6703C286.562 46.1306 286.424 46.5958 286.043 46.8602H286.047ZM285.333 45.0338C284.437 45.0142 283.566 45.1807 283.566 45.827C283.566 46.2481 283.899 46.444 284.309 46.444C284.809 46.444 285.023 46.2579 285.142 46.1306C285.261 46.0082 285.333 45.7731 285.333 45.5626V45.0289V45.0338Z" fill="white"/>
<path d="M316.682 44.3237C316.682 43.7655 316.673 43.3591 316.644 42.987H317.692L317.73 43.7802H317.773C318.007 43.1926 318.564 42.889 319.069 42.889C319.188 42.889 319.255 42.8988 319.355 42.9135V43.9075C319.255 43.8879 319.15 43.8733 319.002 43.8733C318.421 43.8733 318.035 44.1964 317.926 44.6665C317.907 44.7595 317.883 44.8722 317.883 44.9897V47.1442H316.682V44.3188V44.3237Z" fill="white"/>
<path d="M315.973 44.97C315.973 46.5418 314.71 47.242 313.467 47.242C312.081 47.242 311.023 46.4096 311.023 45.0386C311.023 43.6675 312.076 42.7764 313.548 42.7764C315.02 42.7764 315.973 43.6724 315.973 44.9651V44.97ZM312.295 45.0141C312.295 45.8367 312.757 46.4586 313.51 46.4586C314.21 46.4586 314.701 45.8563 314.701 44.9945C314.701 44.3286 314.363 43.5647 313.519 43.5647C312.676 43.5647 312.295 44.2992 312.295 45.0092V45.0141Z" fill="white"/>
<path d="M308.284 47.1441V43.8292H307.57V42.845H308.284V42.6834C308.284 42.1643 308.432 41.5914 308.784 41.2389C309.108 40.9255 309.532 40.808 309.904 40.808C310.175 40.808 310.39 40.8521 310.561 40.8961L310.514 41.9244C310.409 41.8901 310.275 41.8607 310.113 41.8607C309.704 41.8607 309.527 42.2035 309.527 42.6295V42.845H310.514V43.8292H309.537V47.1441H308.289H308.284Z" fill="white"/>
<path d="M356.278 47.0414C355.997 47.1736 355.373 47.3009 354.577 47.3009C352.486 47.3009 351.209 46.1551 351.209 44.4021C351.209 42.5022 352.715 41.3613 354.734 41.3613C355.525 41.3613 356.092 41.5033 356.34 41.6159L356.073 42.4533C355.758 42.3357 355.33 42.2329 354.787 42.2329C353.443 42.2329 352.476 42.9674 352.476 44.3531C352.476 45.6165 353.324 46.4293 354.777 46.4293C355.268 46.4293 355.773 46.346 356.087 46.2187L356.282 47.0462L356.278 47.0414Z" fill="white"/>
<path d="M357.859 45.4255C357.888 46.1747 358.564 46.5028 359.327 46.5028C359.884 46.5028 360.284 46.4342 360.646 46.3118L360.822 47.0365C360.413 47.1834 359.846 47.296 359.16 47.296C357.616 47.296 356.707 46.4636 356.707 45.1905C356.707 44.0349 357.507 42.9479 359.036 42.9479C360.565 42.9479 361.089 44.0594 361.089 44.9751C361.089 45.1709 361.07 45.3276 361.051 45.4206H357.864L357.859 45.4255ZM359.955 44.6911C359.965 44.3042 359.77 43.6726 358.965 43.6726C358.221 43.6726 357.907 44.2602 357.859 44.6911H359.955Z" fill="white"/>
<path d="M361.866 44.2895C361.866 43.8097 361.856 43.413 361.827 43.0507H362.885L362.942 43.6726H362.971C363.176 43.3494 363.695 42.9528 364.49 42.9528C365.324 42.9528 366.181 43.4228 366.181 44.74V47.2079H364.976V44.8575C364.976 44.2601 364.724 43.8048 364.066 43.8048C363.585 43.8048 363.252 44.1035 363.123 44.4217C363.085 44.5148 363.075 44.6421 363.075 44.7645V47.2079H361.861V44.2846L361.866 44.2895Z" fill="white"/>
<path d="M368.596 41.8607V43.0506H369.74V43.834H368.596V45.6752C368.596 46.1795 368.754 46.4439 369.211 46.4439C369.416 46.4439 369.573 46.4194 369.683 46.3901L369.702 47.1931C369.525 47.2519 369.211 47.2959 368.83 47.2959C368.392 47.2959 368.02 47.1686 367.791 46.9532C367.539 46.7132 367.42 46.3362 367.42 45.7927V43.8292H366.734V43.0457H367.42V42.1056L368.596 41.8558V41.8607Z" fill="white"/>
<path d="M371.297 45.4255C371.326 46.1747 372.002 46.5028 372.765 46.5028C373.327 46.5028 373.722 46.4342 374.084 46.3118L374.26 47.0365C373.846 47.1834 373.284 47.296 372.593 47.296C371.05 47.296 370.14 46.4636 370.14 45.1905C370.14 44.0349 370.94 42.9479 372.469 42.9479C373.998 42.9479 374.522 44.0594 374.522 44.9751C374.522 45.1709 374.499 45.3276 374.484 45.4206H371.293L371.297 45.4255ZM373.389 44.6911C373.398 44.3042 373.203 43.6726 372.398 43.6726C371.655 43.6726 371.34 44.2602 371.293 44.6911H373.384H373.389Z" fill="white"/>
<path d="M375.328 44.3923C375.328 43.8243 375.318 43.4228 375.29 43.0507H376.338L376.376 43.8488H376.414C376.647 43.2563 377.209 42.9576 377.714 42.9576C377.833 42.9576 377.9 42.9674 378 42.9821V43.9712C377.9 43.9516 377.795 43.937 377.648 43.937C377.071 43.937 376.681 44.2601 376.571 44.7351C376.552 44.8281 376.533 44.9408 376.533 45.0583V47.2128H375.328V44.3923Z" fill="white"/>
<path d="M153.127 24.2576C153.285 24.2576 153.675 24.1107 153.675 23.6603C153.675 23.2098 153.28 23.0727 153.127 23.0727H151.565V19.366H149.269V23.0727H147.106V24.2576H149.269V29.4039C148.931 29.5361 146.773 30.6526 146.773 30.6526V32.6308C146.773 32.6308 148.807 31.5046 149.269 31.2304V35.7303C149.269 36.4452 149.14 36.4011 148.464 36.4011H148.149C147.973 36.4011 147.606 36.548 147.606 36.9887C147.606 37.4294 147.973 37.5763 148.149 37.5763H149.802C150.979 37.5763 151.555 37.1601 151.555 35.9213V29.8006C152.037 29.4627 152.908 28.9241 153.356 28.5813C153.518 28.4834 153.589 28.3512 153.589 28.1602C153.589 27.8664 153.38 27.6803 153.161 27.6803C153.07 27.6803 152.989 27.6999 152.875 27.7636C152.661 27.8713 151.932 28.1945 151.555 28.3757V24.2625H153.118L153.127 24.2576Z" fill="white"/>
<path d="M164.384 36.504C163.06 36.0045 161.964 35.5296 160.783 34.09C163.236 31.2353 164.031 28.0378 164.031 27.6706C164.031 27.0879 163.774 26.4513 162.788 26.4513H160.254V23.0482H163.798C163.96 23.0482 164.355 22.9062 164.355 22.4508C164.355 21.9954 163.96 21.8632 163.798 21.8632H160.254V19.366H157.967V21.8632H153.623V23.0433H157.967V26.4464H154.075V27.6265H161.173C161.478 27.6265 161.559 27.744 161.559 27.9595C161.559 28.9584 160.382 31.2989 159.558 32.5769C158.601 31.2059 157.934 29.257 157.586 28.361H155.195C155.195 28.361 155.733 31.2206 158.32 34.1634C156.867 35.6177 155.566 35.9996 154.099 36.4697C153.971 36.5089 153.709 36.6411 153.709 37.0279C153.709 37.3021 153.894 37.591 154.18 37.591C154.285 37.591 156.781 37.591 159.558 35.3337C162.012 37.4588 164.098 37.5763 164.217 37.5763C164.565 37.5763 164.708 37.2825 164.708 37.0426C164.708 36.7047 164.551 36.5725 164.379 36.504H164.384Z" fill="white"/>
<path d="M204.475 26.5248C204.632 26.5248 205.027 26.3828 205.027 25.9274C205.027 25.472 204.632 25.3398 204.475 25.3398H203.322C203.284 25.3398 203.241 25.33 203.208 25.33H197.158V24.5172H195.076V25.33H189.179C189.15 25.33 189.107 25.33 189.064 25.3398H187.273V26.5248H195.067V28.0134H188.874V31.9698H191.132V28.9633H194.319C193.313 31.8768 191.108 34.1586 187.993 35.9752C187.74 36.1172 187.569 36.2249 187.569 36.5187C187.569 36.8125 187.783 37.0084 187.993 37.0084C188.14 37.0084 192.275 35.8381 195.067 31.725V36.0535C195.062 36.4208 195.195 37.3217 196.11 37.3217C197.024 37.3217 197.158 36.4012 197.158 36.0535V35.5982C197.158 35.51 197.158 35.4366 197.158 35.3827V31.7054C200.264 36.22 204.022 36.9447 204.232 36.9447C204.422 36.9447 204.656 36.7537 204.656 36.46C204.656 36.1662 204.446 36.0535 204.256 35.9556C200.669 34.0117 198.692 31.4508 197.896 28.9633H200.359C201.031 28.9633 201.15 29.1543 201.15 29.8496V30.3931C201.15 30.775 200.954 30.9807 200.688 31.0052C200.397 31.0345 200.245 31.1521 200.245 31.4899C200.245 31.9306 200.611 31.9796 200.783 31.9796H201.65C202.822 31.9796 203.398 31.5585 203.398 30.3099V29.688C203.398 28.5716 202.955 28.0183 201.65 28.0183H197.153V26.5297H204.465L204.475 26.5248Z" fill="white"/>
<path d="M187.654 24.7718C187.935 24.7718 189.269 23.8904 190.813 22.2745H191.675C192.061 22.8474 192.366 24.0422 192.366 24.0422H194.371C194.114 23.293 193.552 22.6124 193.247 22.2745H195.248C195.4 22.2745 195.786 22.1325 195.786 21.6967C195.786 21.2609 195.4 21.1238 195.248 21.1238H191.456C191.67 20.7664 192.308 19.1064 192.308 19.1064H189.788C189.474 20.1641 188.86 22.348 187.492 23.8267C187.34 23.9932 187.235 24.145 187.235 24.2919C187.235 24.5416 187.416 24.7718 187.659 24.7718H187.654Z" fill="white"/>
<path d="M195.419 23.7533C195.419 24.0079 195.591 24.2429 195.838 24.2429C196.115 24.2429 197.005 23.861 198.511 22.2794H199.368C199.744 22.8523 200.054 24.0471 200.054 24.0471H202.06C201.812 23.2979 201.24 22.6173 200.931 22.2794H204.27C204.422 22.2794 204.808 22.1374 204.808 21.7016C204.808 21.2658 204.422 21.1287 204.27 21.1287H199.144C199.359 20.7713 199.992 19.1113 199.992 19.1113H197.467C197.425 19.5422 197.029 21.8093 195.657 23.293C195.505 23.4644 195.414 23.6113 195.414 23.7582L195.419 23.7533Z" fill="white"/>
<path d="M267.055 20.2522C267.555 20.5852 268.374 20.8741 269.17 21.9219H271.295C271.137 21.2021 269.17 19.5716 267.226 19.3708C267.012 19.3463 266.802 19.5569 266.802 19.8507C266.802 20.0417 266.912 20.1641 267.055 20.2522Z" fill="white"/>
<path d="M283.294 25.5699C279.807 24.2821 278.907 22.534 278.521 21.4029H280.365C280.56 21.4029 280.608 21.5302 280.608 21.6184C280.608 21.8289 280.131 22.5781 280.131 22.7887C280.131 23.0825 280.36 23.2538 280.569 23.2538C280.879 23.2538 282.923 21.7995 282.923 21.0798C282.923 20.6146 282.594 20.3208 282.046 20.3208H275.72C275.772 20.218 276.211 19.5031 276.273 19.3708H273.891C273.434 20.7762 273.029 21.4813 272.333 22.3676C272.138 22.6173 272.104 22.7005 272.104 22.8278C272.104 23.102 272.314 23.3126 272.533 23.3126C272.814 23.3126 274.005 22.4949 274.934 21.4029H276.306C275.844 23.0678 274.667 24.1793 272.586 24.9334C272.395 24.997 272.128 25.1047 272.128 25.4622C272.128 25.6972 272.319 25.9078 272.538 25.9518H272.628C272.976 25.8882 275.558 25.3006 277.311 23.2783C279.45 25.6629 283.051 26.5884 283.342 26.5884C283.613 26.5884 283.761 26.3338 283.761 26.1036C283.761 25.7413 283.532 25.6629 283.304 25.5797L283.294 25.5699Z" fill="white"/>
<path d="M281.432 36.4942C281.37 36.4844 281.303 36.4697 281.246 36.4599C280.346 36.2787 279.45 35.8478 278.935 35.3924H279.378C280.688 35.3924 281.246 34.8881 281.246 33.708V27.8811C281.246 26.7206 280.674 26.2016 279.378 26.2016H269.542C270.69 25.1782 271.299 23.7288 271.29 22.9796C271.29 22.6124 270.761 22.348 270.475 22.7397C270.332 22.9404 270.232 23.0824 270.008 23.3909C269.056 24.7375 267.236 26.0742 265.445 26.892H268.527V33.708C268.527 34.8881 269.084 35.3924 270.389 35.3924H270.885C270.375 35.8478 269.48 36.2787 268.579 36.4599C268.522 36.4697 268.451 36.4893 268.394 36.4942C267.974 36.5676 267.503 36.6557 267.522 37.0622C267.536 37.3951 267.746 37.5861 268.103 37.5861H268.16C269.518 37.5861 270.756 37.2188 271.561 36.9202C272.719 36.4697 273.348 35.8282 273.614 35.3924H276.196C276.473 35.8282 277.092 36.4697 278.254 36.9202C279.059 37.2188 280.293 37.5861 281.636 37.5861H281.713C282.06 37.5861 282.275 37.3951 282.289 37.0622C282.308 36.6557 281.837 36.5676 281.417 36.4942H281.432ZM270.856 27.3474H278.364C278.74 27.3474 278.831 27.411 278.874 27.4698C278.931 27.5579 278.94 27.6069 278.94 27.8615V28.9045H270.856V27.3474ZM270.856 30.0307H278.94V31.5878H270.856V30.0307ZM278.364 34.2711H271.437C270.899 34.2711 270.861 34.1291 270.861 33.7717V32.6895H278.94V33.6835C278.94 34.0801 278.902 34.2711 278.364 34.2711Z" fill="white"/>
<path d="M302.896 36.2102H302.172C301.677 36.2102 301.829 35.5296 301.829 35.1917V21.3589C301.829 20.7076 301.496 19.7577 300.129 19.7577H292.883V20.8398H295.294V24.2136C295.294 25.1831 295.294 26.2995 295.232 27.269C294.298 27.5139 293.95 27.5579 292.912 27.7734V29.9328C292.912 29.9328 294.546 29.4137 295.189 28.9828C295.108 31.2255 294.851 34.1879 293.164 36.4256C292.664 37.1013 293.283 37.5665 293.569 37.4196C293.731 37.3413 293.879 37.2678 293.993 37.165C297.323 33.9773 297.123 30.3637 297.352 28.1014C297.776 27.8958 298.647 27.4943 298.971 27.2397C299.114 27.1319 299.243 27.0095 299.243 26.7794C299.243 26.4856 299.014 26.2897 298.824 26.2897C298.743 26.2897 297.938 26.5835 297.471 26.7353C297.533 25.7658 297.571 25.0264 297.571 24.478V20.83H299.038C299.4 20.83 299.514 21.0798 299.514 21.5205V34.2173C299.514 35.2651 299.352 37.2727 301.672 37.2727C302.515 37.2727 302.711 37.2678 302.744 37.2678C302.768 37.2678 302.801 37.2678 302.896 37.2727C303.282 37.2923 303.783 37.2482 303.783 36.7782C303.783 36.2347 303.316 36.1955 302.896 36.1955V36.2102Z" fill="white"/>
<path d="M292.088 20.5313C292.088 20.1151 291.73 19.9927 291.583 19.9927H286.262V21.0748H291.583C291.73 21.0748 292.088 20.9426 292.088 20.5313Z" fill="white"/>
<path d="M292.288 22.6957H285.504V23.7778H292.288C292.435 23.7778 292.798 23.6505 292.798 23.2343C292.798 22.8181 292.435 22.6957 292.288 22.6957Z" fill="white"/>
<path d="M292.088 26.0156C292.088 25.6042 291.73 25.4769 291.583 25.4769H286.262V26.5591H291.583C291.73 26.5591 292.088 26.4269 292.088 26.0156Z" fill="white"/>
<path d="M286.262 29.355H291.583C291.73 29.355 292.088 29.2228 292.088 28.8066C292.088 28.3904 291.73 28.2679 291.583 28.2679H286.262V29.3501V29.355Z" fill="white"/>
<path d="M290.916 31.0149H286.186V35.5051C286.186 36.4354 286.476 37.072 287.805 37.072H290.916C292.031 37.072 292.55 36.6313 292.55 35.5051V32.5818C292.55 31.529 292.135 31.0149 290.916 31.0149ZM290.449 35.3288C290.449 35.98 290.358 36.1563 289.711 36.1563H289.049C288.405 36.1563 288.291 35.98 288.291 35.3288V31.9257H289.711C290.339 31.9257 290.449 32.0872 290.449 32.7385V35.3288Z" fill="white"/>
<path d="M176.479 32.9099C176.379 32.7826 176.207 32.621 175.707 32.807C175.502 32.8805 174.759 33.1841 173.663 33.5758V27.6607H175.388C175.545 27.6607 175.936 27.5187 175.936 27.0634C175.936 26.608 175.55 26.4758 175.388 26.4758H173.663V21.3001H175.698C175.855 21.3001 176.25 21.1581 176.25 20.7027C176.25 20.2473 175.855 20.1102 175.698 20.1102H167.599V21.2952H171.382V34.3348C171.015 34.4523 170.529 34.5698 170.134 34.6775V25.3643H168.409V35.1378C168.052 35.226 167.776 35.3141 167.404 35.3924V37.4784C167.404 37.4784 172.211 36.122 176.245 33.5758C176.588 33.3799 176.584 33.0372 176.484 32.905L176.479 32.9099Z" fill="white"/>
<path d="M185.158 36.3179C184.906 36.122 183.105 35.2847 181.566 32.8168C182.881 30.8582 183.877 28.0672 183.944 24.0911H184.706C184.858 24.0911 185.254 23.9491 185.254 23.4987C185.254 23.0482 184.858 22.9062 184.706 22.9062H179.085C179.523 21.7849 180.118 20.4677 180.114 19.3708H177.794C177.722 20.8986 177.546 23.2098 176.688 25.2859C176.65 25.3985 176.555 25.5209 176.555 25.707C176.555 25.942 176.769 26.1526 176.998 26.1526C177.408 26.1526 177.794 25.707 178.57 24.0911H181.676C181.747 24.8893 181.895 27.8517 180.538 30.8484C180.061 29.7173 179.666 28.4001 179.442 26.8822H177.351C177.351 26.8822 177.527 29.6439 179.518 32.6504C178.375 34.2956 176.66 35.5099 174.078 36.5089C173.683 36.6998 173.811 37.0034 173.926 37.1405C174.045 37.2776 174.192 37.3755 174.864 37.1405C175.245 37.0034 178.165 36.7635 180.585 34.0606C181.633 35.2749 183.01 36.1661 184.83 37.1748C185.192 37.3951 185.473 37.214 185.52 36.9985C185.568 36.7831 185.573 36.6313 185.153 36.3179H185.158Z" fill="white"/>
<path d="M143.815 30.0356H142.457V19.366H140.175L140.166 30.0356H134.216V31.2157H140.166V36.1906C140.166 36.5872 140.313 37.5763 141.309 37.5763C142.304 37.5763 142.452 36.5676 142.452 36.1906V31.2157H143.819C143.981 31.2157 144.372 31.0737 144.372 30.6183C144.372 30.1629 143.981 30.0356 143.819 30.0356H143.815Z" fill="white"/>
<path d="M133.301 24.1107H131.42V21.2805C132.353 20.8153 133.187 20.1984 133.682 19.3708H130.862C129.929 20.4236 128.59 21.2854 126.723 21.5253C126.327 21.5498 126.246 21.8338 126.265 22.0052C126.284 22.1766 126.489 22.4606 126.866 22.4655C127.342 22.4655 128.056 22.3676 129.128 22.0982V24.1156H126.642V25.3006H129.047C128.633 28.503 127.428 31.1814 126.18 32.8413C126.046 33.0078 125.97 33.1155 125.97 33.282C125.97 33.5513 126.18 33.7619 126.423 33.7619C126.732 33.7619 127.866 32.4251 129.128 30.0699V36.1759C129.128 36.597 129.281 37.5812 130.276 37.5812C131.272 37.5812 131.42 36.5725 131.42 36.1759V29.0856C131.748 29.6096 132.444 30.8533 132.93 30.8533C133.154 30.8533 133.373 30.6379 133.373 30.3637C133.373 30.2168 133.254 30.0845 133.201 29.9866C131.972 27.7342 131.71 26.7794 131.572 25.3006H133.301C133.449 25.3006 133.844 25.1537 133.844 24.7032C133.844 24.2527 133.444 24.1156 133.301 24.1156V24.1107Z" fill="white"/>
<path d="M136.931 23.0726L136.964 23.1706C136.964 23.1706 138.817 23.1706 139.184 23.1706C139.103 22.3381 138.108 20.9769 137.012 20.3403C136.66 20.1983 136.321 20.2277 136.159 20.4334C136.064 20.5607 136.031 20.7321 136.064 20.9475C136.121 21.2854 136.969 21.9807 136.931 23.0726Z" fill="white"/>
<path d="M135.531 25.7021C136.169 26.4855 136.836 27.3228 136.926 28.1112C137.212 28.1112 138.989 28.1112 139.237 28.1112C139.184 26.7695 137.25 24.899 136.236 24.5612C135.878 24.4241 135.535 24.4583 135.378 24.6542C135.273 24.7766 135.235 24.9578 135.278 25.1732C135.302 25.2859 135.259 25.3642 135.526 25.6972L135.531 25.7021Z" fill="white"/>
<path d="M263.706 31.4115H262.987V21.2462C263.011 20.2963 262.32 19.6842 261.486 19.6842H258.237V20.6537H260.114C260.505 20.6537 260.715 20.9084 260.691 21.3099V23.3469H258.504V24.5073H260.691V27.2592H258.504V28.4148H260.691V31.4066H257.475V26.1036C257.475 25.1096 256.894 24.6444 256.008 24.6444H255.413C254.874 24.6444 254.874 24.2674 254.874 24.052V22.9209H257.032C257.185 22.9209 257.575 22.7837 257.575 22.3382C257.575 21.8926 257.185 21.7653 257.032 21.7653H254.874V19.6793H252.993V24.287C252.993 24.8109 253.293 25.614 254.431 25.614H255.065C255.446 25.614 255.608 25.7805 255.608 26.2016V31.4017H254.546V26.4366H252.993V31.4017H249.387V28.4099H251.311C251.459 28.4099 251.849 28.2728 251.849 27.8272C251.849 27.3816 251.459 27.2543 251.311 27.2543H249.387V24.5024H251.311C251.459 24.5024 251.849 24.3604 251.849 23.9198C251.849 23.4791 251.459 23.342 251.311 23.342H249.387V21.305C249.368 20.9035 249.577 20.6488 249.963 20.6488H251.845V19.6793H248.596C247.767 19.6793 247.071 20.2914 247.091 21.2413V31.4066H246.014V32.5671H263.716C263.873 32.5671 264.254 32.4251 264.254 31.9844C264.254 31.5437 263.873 31.4066 263.701 31.4066L263.706 31.4115Z" fill="white"/>
<path d="M247.114 36.5872C246.914 36.6753 246.733 36.8369 246.733 37.116C246.733 37.3951 247.028 37.5861 247.371 37.5322C250.792 37.067 253.383 34.2368 253.555 33.3309H250.882C250.177 35.1084 248.667 35.9212 247.114 36.5823V36.5872Z" fill="white"/>
<path d="M262.992 36.6068C261.277 35.6128 259.786 34.5894 259.238 33.3506H256.508C257.294 35.5834 261.51 37.5421 262.882 37.5763C263.168 37.5861 263.325 37.3266 263.325 37.0916C263.325 36.881 263.187 36.7096 262.992 36.6068Z" fill="white"/>
<path d="M229.394 21.9611H232.276C232.147 22.818 231.794 23.7288 231.289 24.4829C230.861 25.1243 230.332 25.6042 229.713 25.9665C229.112 26.3142 228.85 26.368 228.889 26.6667C228.931 26.985 229.332 26.9312 229.365 26.9312C230.189 26.8822 231.161 26.5247 232.223 25.6629C233.509 24.62 234.11 22.9796 234.343 21.9611H236.739V25.3349C236.739 26.1281 236.963 26.9312 238.621 26.9312H241.765C242.389 26.9312 242.455 26.5492 242.46 26.5394C242.498 26.3436 242.465 26.182 242.36 26.0547C242.227 25.9029 241.979 25.8196 241.636 25.8196H239.445C238.835 25.8196 238.783 25.7168 238.783 25.188V21.9611H240.888C241.531 21.9611 241.631 22.0591 241.631 22.6858V23.6505C241.631 23.6945 241.555 24.7767 242.398 24.9774C242.517 25.0362 242.703 25.046 242.803 25.046C243.341 25.046 243.98 24.8207 243.98 23.7386V22.7299C243.98 21.0797 242.894 20.8545 241.836 20.8545H236.696V19.1113H234.324V20.8545H227.04V25.0166H229.394C229.394 25.0166 229.398 22.0884 229.403 21.966L229.394 21.9611Z" fill="white"/>
<path d="M243.022 36.0926H241.584C240.945 36.0926 240.821 35.9702 240.821 35.3239V30.4322C240.821 30.1923 240.726 29.7809 240.417 29.4823C240.116 29.1836 239.664 29.066 239.04 29.066H235.157C235.324 28.1602 235.4 27.3033 235.429 26.5884H232.981C232.976 27.4698 232.914 28.2924 232.804 29.066H228.06V30.2608H232.585C232.318 31.3576 231.913 32.3321 231.332 33.1645C230.432 34.4425 229.293 35.4218 227.798 36.1367C227.621 36.2248 227.107 36.3717 227.107 36.8369C227.107 37.0915 227.302 37.3706 227.693 37.3559C228.103 37.3413 230.542 36.739 232.78 34.2711C233.862 33.0714 234.505 31.6465 234.886 30.2608H238.135C238.34 30.2608 238.478 30.3734 238.502 30.535V35.2602C238.502 37.0621 239.588 37.3021 240.65 37.3021H243.022C243.332 37.3021 243.699 37.1454 243.699 36.6949C243.699 36.4697 243.608 36.0926 243.022 36.0926Z" fill="white"/>
<path d="M224.277 26.5542H223.225V21.0259H223.953C224.373 21.0259 224.62 20.8007 224.62 20.4286C224.62 20.0564 224.373 19.8312 223.953 19.8312H215.522V21.0259H216.732V26.5542H215.065V27.7489H216.727C216.727 29.9083 216.613 31.6564 216.203 32.9638C215.87 34.0165 215.469 34.9126 214.755 35.7206C214.279 36.2592 214.093 36.3865 214.059 36.6754C214.026 36.9643 214.236 37.3413 214.607 37.3413C214.926 37.3413 215.25 37.1308 215.717 36.8027C216.241 36.4306 217.06 35.51 217.661 34.4866C218.337 33.3359 218.885 31.7347 219.014 27.7489H220.948V35.9507C220.948 37.1112 221.572 37.3511 222.091 37.3511C222.61 37.3511 223.234 37.1112 223.234 35.9507V27.7489H224.287C224.701 27.7489 224.954 27.5237 224.954 27.1564C224.954 26.7158 224.597 26.5591 224.287 26.5591L224.277 26.5542ZM220.943 26.5542H219.009V21.0259H220.943V26.5542Z" fill="white"/>
<path d="M214.536 33.9431V27.3915C214.536 26.2065 213.978 25.6924 212.673 25.6924H210.891C211.258 24.5123 211.816 22.5684 211.968 21.0113L214.131 21.0308C214.55 21.0308 214.798 20.8056 214.798 20.4335C214.798 20.0613 214.545 19.8312 214.131 19.8312H207.619V21.0259H209.339C209.248 25.8001 208.019 28.219 206.952 30.4812C206.79 30.824 206.557 31.0835 206.69 31.3577C206.776 31.5242 206.971 31.6025 207.157 31.5927C207.343 31.5829 207.924 31.4361 208.905 30.1434V33.9431C208.905 35.133 209.458 35.6471 210.768 35.6471H212.673C213.974 35.6471 214.536 35.133 214.536 33.9431ZM212.535 33.8452C212.535 34.3838 211.959 34.4474 211.444 34.4474H212.149C211.625 34.4474 211.034 34.374 211.034 33.8452V27.4894C211.034 27.176 211.034 26.9802 211.039 26.8676H211.439C211.944 26.8676 212.53 26.9459 212.53 27.4894V33.8452H212.535Z" fill="white"/>
<path d="M336.742 36.1905H331.45C330.735 36.1905 330.564 35.9848 330.564 35.2063V23.5671H328.472V35.3973C328.472 36.832 329.054 37.351 330.449 37.351H336.742C337.576 37.351 338.081 37.351 338.081 36.7291C338.081 36.1073 337.457 36.1905 336.742 36.1905Z" fill="white"/>
<path d="M326.234 25.7266C325.933 25.7364 325.691 26.0253 325.638 26.5639C325.557 27.5726 325.319 28.738 324.819 30.251C324.342 31.671 323.528 33.2428 322.951 34.2074H325.543C325.7 33.8206 326.257 32.0529 326.534 30.5938C326.8 29.1835 327.005 27.2249 326.924 26.5051C326.848 25.8098 326.524 25.7217 326.224 25.7315L326.234 25.7266Z" fill="white"/>
<path d="M339.486 27.3081C338.586 26.0301 337.89 25.2466 337.357 25.1585C337.033 25.0997 336.775 25.2858 336.794 25.658C336.814 25.9762 337.08 26.3337 337.266 26.6715C338.114 28.1944 338.867 30.1628 338.981 32.474H341.534C341.444 30.7308 340.543 28.8065 339.486 27.3081Z" fill="white"/>
<path d="M329.13 20.3207C331.178 21.0944 332.336 22.8278 332.883 23.7777H335.613C335.199 22.6025 332.788 19.6793 329.201 19.3659C328.996 19.3463 328.772 19.552 328.772 19.8409C328.772 20.1298 328.953 20.2522 329.13 20.3207Z" fill="white"/>
<path d="M319.536 22.3431H314.763V19.366H312.486V22.3431H305.488V29.3207C305.488 31.0198 306.169 31.5144 307.717 31.5144H312.486V35.9311C312.486 36.4991 312.595 37.3511 313.62 37.3511C314.644 37.3511 314.768 36.4746 314.768 35.9311V31.5144H319.541C320.884 31.5144 321.775 31.1814 321.775 29.3207V24.5416C321.775 22.8278 321.056 22.3431 319.541 22.3431H319.536ZM312.486 30.5546H308.746C308.122 30.5546 307.765 30.3637 307.765 29.4725V23.3126H312.486V30.5546ZM319.493 29.4725C319.493 30.4322 319.06 30.5546 318.507 30.5546H314.768V23.3126H318.507C319.288 23.3126 319.493 23.6652 319.493 24.3996V29.4725Z" fill="white"/>
</g>
<defs>
<clipPath id="clip0_51_2323">
<rect width="378" height="49" fill="white"/>
</clipPath>
</defs>
</svg>
